<?xml version="1.0" encoding="UTF-8"?>
<svg id="Calque_1" data-name="Calque 1" xmlns="http://www.w3.org/2000/svg" viewBox="0 0 1000 1000">
  <defs>
    <style>
      .cls-1 {
        fill: #1d1d1b;
      }

      .cls-2 {
        fill: none;
        stroke: #1d1d1b;
        stroke-miterlimit: 10;
        stroke-width: 6px;
      }

      .cls-3 {
        fill: #f59b21;
      }
    </style>
  </defs>
  <path class="cls-3" d="M708.82,324.9c-19.99,13.08-39.55,26.58-58.93,40.54-7.35,5.29-11.07,13.7-7.36,22.48,3.74,8.85,12.21,11.81,21.23,10.42,4.57-.7,9.14-1.39,13.72-2.03.01,0,5.9-.81,3.06-.43,2.61-.35,5.23-.68,7.85-1.01,8.5-1.05,17.01-2,25.54-2.82,17.68-1.71,35.4-2.92,53.14-3.67-3.03-11.18-6.06-22.36-9.08-33.54-36.08,21.33-73.43,40.35-110.61,59.67-6.35,3.3-9.5,11.19-8.59,17.94.86,6.39,5.97,13.89,12.89,14.96,15.56,2.42,31.1,3.23,46.82,3.55,7.18.14,14.37.26,21.54.61,3.59.17,7.18.39,10.76.71,1.96.17,3.91.37,5.86.59l1.95.24c-1.54-.19-1.18-.13,1.06.2,9.26,1.44,19.81-2.35,22.14-12.57,1.96-8.61-2.62-20.59-12.57-22.14-15.56-2.42-31.1-3.23-46.82-3.55-7.18-.14-14.37-.26-21.54-.61-3.59-.17-7.18-.39-10.76-.71-1.96-.17-3.91-.37-5.86-.59l-1.95-.24c1.54.19,1.18.13-1.06-.2,1.43,10.97,2.87,21.93,4.3,32.9,37.18-19.33,74.53-38.34,110.61-59.67,14.9-8.81,9.15-34.31-9.08-33.54-37.82,1.59-75.47,5.47-112.88,11.24,4.62,10.97,9.25,21.93,13.87,32.9,19.38-13.96,38.95-27.46,58.93-40.54,7.87-5.15,11.91-16.17,6.46-24.63-5.07-7.86-16.2-11.97-24.63-6.46h0Z"/>
  <path class="cls-1" d="M223.1,596.96h-30.78v-158.15h35.42l36.39,73.56,36.97-73.56h34.84c.48,46.97.97,93.95,1.45,140.92h-32.23v-90.79l-32.33,64.46h-17.42l-32.33-66.59v110.14Z"/>
  <path class="cls-1" d="M470.4,579.73h-19.96c-1.51-5.16-3.03-10.32-4.54-15.49-10.45,7.74-22.2,11.68-35.23,11.81-16.65,0-30.85-6.03-42.59-18.1-11.75-12.07-17.62-26.55-17.62-43.46s5.87-31.36,17.62-43.36c11.74-12,25.94-18,42.59-18,12.78,0,24.39,3.74,34.84,11.23l4.45-11.23h20.91c-.16,42.2-.32,84.4-.47,126.6ZM410.68,546.82c8.52,0,15.81-3.16,21.87-9.48,6.06-6.32,9.1-13.94,9.1-22.84s-3.03-16.48-9.1-22.75c-6.07-6.26-13.36-9.39-21.87-9.39s-15.81,3.13-21.88,9.39c-6.07,6.26-9.1,13.84-9.1,22.75s3.03,16.52,9.1,22.84c6.06,6.32,13.36,9.48,21.88,9.48Z"/>
  <path class="cls-1" d="M527.98,579.73h-3.1c-8.26,0-16.04-1.74-23.33-5.23-7.29-3.48-13.39-8.32-18.29-14.52v-.19l23.62-18v.19c4.38,5.42,10.45,8.13,18.2,8.13h1.16c7.74-.64,12.45-3.1,14.13-7.36.39-.9.58-2,.58-3.29-.13-1.29-.77-2.52-1.94-3.68-2.2-2.45-7.42-5.1-15.68-7.94l-8.13-3.48c-6.45-2.71-12.46-6.26-18-10.65-8.39-7.48-12.58-15.81-12.58-24.97,0-3.74.71-7.61,2.13-11.61,2.97-7.61,8.39-13.81,16.26-18.58,7.48-4.26,15.1-6.39,22.84-6.39,15.1,0,28.2,5.68,39.3,17.03h.19l-21.68,20.33c-5.16-5.16-11.16-7.74-18-7.74-2.71.26-5.23,1.1-7.55,2.52-2.32,1.42-3.48,2.71-3.48,3.87,0,1.03.58,1.94,1.74,2.71,6.06,4.52,12.71,7.94,19.94,10.26,2.71,1.03,5.35,2.13,7.94,3.29,6.19,2.58,11.68,6.19,16.45,10.84,6.58,7.36,9.87,15.68,9.87,24.97,0,7.74-2.45,15.1-7.36,22.07-7.87,10.45-19.62,16.26-35.23,17.42Z"/>
  <path class="cls-1" d="M623.62,579.73h-30.35c.24-31.62.48-63.23.72-94.85h-16.84v-24h17.23l.39-24.58,28.46-1.55.19,26.13h23.62v24h-23.42c0,31.62,0,63.23.01,94.85Z"/>
  <path class="cls-1" d="M721.22,578.79c-16.33,2.48-31.13-1.3-44.41-11.36-13.28-10.05-21.18-23.38-23.7-39.96-2.52-16.58,1.07-31.62,10.77-45.1,9.7-13.48,22.71-21.47,39.04-23.95,13.8-1.97,26.72.57,38.75,7.62,11.78,7.09,20.27,16.96,25.45,29.61,1.99,4.53,3.35,9.15,4.07,13.87l-82.43,30.94c7.96,8.58,17.36,12.05,28.21,10.4,5.74-.87,10.84-3.18,15.3-6.93,4.45-3.74,7.68-8.51,9.67-14.3l26.61,8.88c-3.7,10.88-9.77,19.89-18.21,27.05-8.44,7.16-18.15,11.57-29.12,13.24ZM680.74,516.03l53.72-20.11c-3.58-3.76-7.84-6.51-12.8-8.23-4.96-1.72-9.8-2.23-14.52-1.51-7.02,1.07-13.13,4.44-18.33,10.13-5.2,5.69-7.9,12.26-8.06,19.73Z"/>
  <path class="cls-1" d="M786.68,579.73c.27-41.68.54-83.37.81-125.05h29.23l.19,12.97c6.06-9.68,15.61-14.52,28.65-14.52,12.26,0,23.1,7.36,32.52,22.07l-24.58,15.87c-4.13-5.81-9.29-8.71-15.49-8.71-9.16,0-16.07,4.78-20.71,14.32.19,27.68.38,55.36.57,83.04h-31.19Z"/>
  <path class="cls-2" d="M678.53,429.91c-10.08-62.12-12.23-84.52-10.15-84.94,3.74-.77,18.63,70.1,28.44,68.83,2.5-.32,4.44-5.28,7.6-31.3,5.18-42.55,5.62-75.53,6.5-75.54.9,0,2.9,34.61,6.38,75.28,1.41,16.46,2.79,30.79,5.52,30.93,5.98.31,22.21-55.74,25.37-68.81.25-1.02,1.75-.84,1.73.21-.33,14.53-.71,29.16-1.16,43.88-.62,20.42-1.34,40.66-2.17,60.71-5.61-3.29-18.96-10.1-37.18-9.89-19.56.23-33.47,8.41-38.85,11.97"/>
  <path class="cls-1" d="M373.86,439.01h-21.31l-.39-53.85h18.33c3.63,0,6.71,1.34,9.26,4.02,2.55,2.68,3.82,5.91,3.82,9.7,0,2.61-.67,5.05-2.01,7.3,2.72,1.49,4.9,3.59,6.54,6.32,1.64,2.73,2.46,5.75,2.46,9.09,0,4.82-1.63,8.93-4.89,12.33-3.26,3.4-7.2,5.1-11.82,5.1ZM368.68,403.6c1.42,0,2.63-.46,3.63-1.39.99-.92,1.49-2.04,1.49-3.34s-.5-2.49-1.49-3.41c-.99-.92-2.2-1.39-3.63-1.39h-6.35v9.53h6.35ZM372.05,429.89c2.46-.09,4.53-.92,6.22-2.5,1.68-1.58,2.53-3.51,2.53-5.81s-.85-4.19-2.56-5.81c-1.71-1.62-3.77-2.43-6.18-2.43h-9.71v16.55h9.71Z"/>
  <path class="cls-1" d="M424.18,440.76l-15.67-25,.65,22.84-11.2.41.13-53.85h17.94c4.01,0,7.45,1.49,10.3,4.46,2.85,2.97,4.27,6.55,4.27,10.74,0,3.51-1,6.61-3.01,9.29-2.01,2.68-4.59,4.49-7.74,5.44l12.82,20.07-8.48,5.61ZM414.79,406.1c1.55,0,2.85-.54,3.89-1.62s1.58-2.45,1.62-4.12c-.04-1.62-.58-2.97-1.62-4.05s-2.33-1.64-3.89-1.69h-6.28v11.49h6.28Z"/>
  <path class="cls-1" d="M445.42,440.09l-8.94-4.87,20.92-50.07,14.7-.54,11.46,52.84-9.32,2.36-3.89-18.04-16.51-1.82-8.42,20.14ZM468.47,413.2l-3.95-18.65-7.32,17.43,11.27,1.22Z"/>
  <path class="cls-1" d="M501.11,439.01h-10.68v-53.85h11.14l17.81,35.07-.52-32.3,10.68-.41v50.88h-10.75l-18.2-35.2.52,35.81Z"/>
  <path class="cls-1" d="M557.25,439.01h-18.26l.65-53.85h17.61c4.75,0,8.97,1.22,12.66,3.65,3.69,2.43,6.59,5.69,8.71,9.76,2.11,4.08,3.17,8.59,3.17,13.55s-1.06,9.46-3.17,13.51c-2.12,4.05-5.02,7.3-8.71,9.73s-7.91,3.65-12.66,3.65ZM554.99,429.89c4.88,0,8.85-1.69,11.92-5.07,3.06-3.38,4.6-7.61,4.6-12.7s-1.53-9.4-4.6-12.8c-3.07-3.4-7.04-5.1-11.92-5.1h-5.31v35.68h5.31Z"/>
</svg>