<?xml version="1.0" encoding="UTF-8"?>
<svg id="Calque_1" data-name="Calque 1" xmlns="http://www.w3.org/2000/svg" viewBox="0 0 479.71 479.71">
  <defs>
    <style>
      .cls-1 {
        fill: #1d1d1b;
      }
    </style>
  </defs>
  <g>
    <path d="M391.84,321.94l-29.28,65.63-61.51-2.34,29.43-65.98,61.36,2.69ZM351.85,347.93c-5.67-2.33-14.54,6.29-10.95,11.27,3.72,5.18,14.35-1.45,13.49-7.88-.19-1.43-1.18-2.83-2.54-3.39Z"/>
    <path d="M296.6,383.25l-43.02-44.15,29.18-65.68,43.12,44.2-29.28,65.63ZM285.01,292.06c-1.25-.53-2.78-.36-3.82.56-4.53,4.03-.02,15.39,5.45,13.22,4.94-1.96,2.95-11.83-1.63-13.78ZM305.02,326.87c1.02,2.85,4.23,6.54,7.45,4.36,4.34-2.94,1.75-13.28-3.68-13.65-4.41-.3-4.89,6.17-3.77,9.29ZM294.09,326.4c-1.75-5.06-7.57-7.73-9.47-1.12-1.02,3.55,1.62,10.48,5.91,10.44,4.26-.05,4.62-6.28,3.57-9.31ZM270.04,323.78c-.72-.19-1.58-.14-2.26.19-5.3,2.58-2.15,14.56,3.64,14.07s4.75-12.67-1.39-14.26ZM295.03,349.51c-3.84-.84-5.09,4.22-4.74,7.16.72,6.14,7.87,10.94,9.97,3.17.95-3.54-1.37-9.48-5.22-10.33Z"/>
    <path d="M390.81,316.72l-.79.21-60.3-2.51-41.27-42.39-.45-.89,59.25,3.99,43.56,41.59ZM324.84,281.48c-2.62-1.02-11.36-2.37-10.69,2.43.63,4.53,11.29,7.6,15,5.28,4.3-2.68-1.62-6.67-4.31-7.71ZM342.35,299.77c1.55,4.01,12.73,7.42,15.66,4.01,2.88-3.34-3.75-6.7-6.18-7.54-2.71-.93-11.4-1.45-9.48,3.53Z"/>
  </g>
  <g>
    <path d="M185.44,330.27c1.92-4.69-2.79-10.68-3.43-11.49-2.34-2.9-4.33-3.5-20.87-9.2-7.79-2.69-9.95-3.45-12.71-2.38-4.08,1.58-6.1,5.89-7.57,8.86-3.21,6.51-2.98,14.1-5.03,14.22-.27.02-.47-.1-.6-.18-2.18-1.31-.26-8.87,1.63-13.57,1.74-4.33,3.76-7,7.5-11.94,2.18-2.87,4.86-5.83,10.2-11.76,2.69-2.99,4.13-4.42,5.19-5.4,2.53-2.36,3.62-2.93,5.43-5.49,5.35-7.56,8.5-19.62.71-26.66-1.6-1.45-6.44-4.69-8.07-2.18-3.85,8.36-8.74,20.19-17.49,24.44-2.14,1.04-4.89,1.57-7.11,2.52-5.13,2.19-7.1,5.67-10.78,9.5-3.91,4.06-17.11,17.41-23.18,15.25l-2.9-1.03-17.68,50.17c31.58,15.98,55.23,26.73,60.86,28.1,3.85.93,7.38.47,7.38.47,2.36-.32,4.65-1.13,7.12-2.48,5.09-2.76,3.78-4.29,5.96-8.81,1.48-3.07,8.47-3.64,10.32-6.97,1.65-2.96-.46-7.77.92-10.67,1.15-2.41,6.76-3.6,7.91-5.76,1.44-2.71-1.56-7.79-.73-10.61,1.16-3.93,5.53-3.35,7.01-6.97Z"/>
    <path d="M72.64,292.46c2.82.64,14.11,4.56,16.22,6.01,1.57,1.08,2.31,2.9,2.21,4.77l-17.14,48.34c-1.24,2.32-3.7,3.29-6.23,2.63-5.05-1.32-10.31-4.03-15.37-5.52-1.85-.99-3.09-2.96-2.96-5.08l17.22-48.54c1.3-2.3,3.53-3.2,6.07-2.62Z"/>
    <g>
      <path class="cls-1" d="M227.47,350.56c-5.74-2.05-7.67-20.36-8.11-25.73-.4-4.98.21-9.69-2.07-14.31-.96-1.95-2.48-3.76-3.5-5.65-5.25-9.64-1.09-21.9,1.27-31.84.09-2.08-5.05-2.99-6.67-3-8.57-.05-15.26,15-17.35,24.86-1.65,7.75-.93,14.57.1,19.43,2.49,11.4.56,15.95-1.77,17.97-1.83,1.58-5.5,3.01-5.69,5.87-.03.43-.1,1.4.62,3.04.77,1.75,1.2,3.47,1,5.26-.03.24-.11,1.02-.45,1.93-.72,1.9-2,2.92-4.77,5.18-2.29,1.86-3.43,2.8-3.46,2.84-2.22,3.21.54,6.04-1.54,10.07-.28.54-1.38,2.68-3.68,3.88-1,.52-1.65.65-4.77,1.92-1.91.78-2.85,1.71-3.53,3.7-.77,2.24-1.7,4.1-3.31,5.84-.36.39-1.71,1.97-4.05,3.14-1.69.85-3.23,1.17-4.25,1.3,5.89,2.49,12.38,4.93,19.46,7.15,4.69,1.47,9.22,2.72,13.54,3.77l28.01,4.58,17.91-50.19-2.9-1.03Z"/>
      <path d="M241,352.52c2.81.64,13.93,4.49,16.06,5.92,1.41.95,2.4,2.66,2.35,4.37-5.18,16.4-11.51,32.54-17.13,48.83-1.31,2.31-3.66,3.31-6.23,2.63-5.05-1.32-10.31-4.03-15.37-5.52-1.87-.92-3.07-3-2.96-5.08l17.29-48.74c1.22-2.17,3.64-2.96,6-2.42Z"/>
    </g>
  </g>
  <path d="M237.13,207.9c1.61-1.28.53-4.52.43-6.43-.37-7.64,1-15.37,5.35-21.77,2.8-4.12,6.74-6.69,10.11-10.21,10.5-10.99,14.45-26.6,24.18-38.44,3.56-4.33,8.71-8.84,12.94-2.33,8.82,13.6-6.81,26.9-12.71,37.78-6.38,11.78-6.88,26.5-10.7,39.2-2.04,6.79-6.29,12.74-10.83,18.09-.47.55-2.08,2.63-2.58,2.68l-60.75-5.16c-10.78-1.92-19.52-25-24.3-33.79-7.82-14.36-19.6-24.76-29.44-37.45-3.8-4.9-9.79-14.11-6.25-20.39,3.75-6.66,13.69,2.98,17.16,5.93,8.05,6.84,15.48,14.43,22.97,21.86,1.07.82,2.5,1.01,3.5,0,1.33-1.34.79-2.29.21-3.76-4.05-10.14-9.74-20.4-14.07-30.63-3.42-8.08-10.67-22.74-6.25-31.12,2.7-5.12,5.93-1.69,8.33,1.39,1.6,2.05,3.19,4.62,4.64,6.81,10,15.06,18.84,31.07,28.04,46.62,1.89,2.28,5.23.55,4.52-2.34-5.38-17.12-11.34-34.45-15.16-52.02-1.55-7.12-4.25-18.1.35-24.42,1.63-2.24,4.39-3.66,7.05-2.24,2.85,1.52,4.44,7.58,5.48,10.53,7.47,21.1,13.15,43.21,20.72,64.16.42,1.17.72,2.71,2.17,3.01,1.77.37,3.09-.57,3.31-2.36-.31-15.74-.4-31.48.58-47.21.52-8.41.55-19.69,9.15-24.3,9.88-5.29,9.54,7.41,9.77,13.39.25,6.43.21,12.96.2,19.39-.02,22.87-.75,45.86-1.62,68.68-8.75,7.92-12.11,19.95-11.16,31.52.09,1.13.27,3.48.73,4.43.7,1.43,2.69,1.84,3.92.86Z"/>
  <g>
    <path d="M64.5,233.61c.3,1.7,2.21,2.58,3.73,1.85.97-.46,3.19-2.63,4.13-3.48,1.37-1.23,2.61-2.6,3.99-3.81,5.29.91,10.6,2.53,15.49,4.79,6.01,2.79,11.31,6.3,16.24,10.73,1.23,1.11,3.03,3.47,4.37,4.12,2.24,1.09,4.58-1.74,2.86-4.09-3.39-4.63-11.99-10.57-17.06-13.36-5.64-3.09-11.74-5.23-17.96-6.74,1.64-1.85,2.8-3.97,4.27-5.92,4.89,1.46,10.28,2.57,15.12.4,6.95-3.11,9.52-10.46,9.33-17.59,10.2.51,15.66-9.71,15.36-18.77,9.84-2.57,13.05-11.42,10.85-20.64,6.14,5.23,12.15,10.7,17.63,16.61,6.12,6.59,9.66,11.01,11.94,19.82,1.71,6.61,2.32,13.56,2.37,20.37l-36.05,51.35c-7.27.25-14.59.68-21.86.38-10.45-.43-14.24-2.45-23.39-7.35-11.44-6.13-23.11-13.07-33.99-20.15-4.45-2.9-8.78-4.46-9.2-10.49-.81-11.56,18.2-27.62,28.44-30.83,6.54-2.05,13.37-.38,11.6,7.91-1.39,6.51-7.41,13.36-12.12,17.91-1.5,1.45-4.41,3.44-5.54,4.87-.39.49-.68,1.5-.57,2.11Z"/>
    <path d="M86.77,212.84c4.14-10.02-1.71-19.42-13.03-17.81-5.75-6.21-12-11.95-18.88-16.91,1.28-8.19,6.82-15.77,15.96-13.51,6.46,1.6,16.03,12.55,20.63,17.7,2.72,3.05,5.57,6.31,8.06,9.55,3.01,3.91,4.74,5.82,4.37,11.01-.71,10.11-8.29,13.56-17.1,9.97Z"/>
    <path d="M111.48,195.27c-.89.16-3.07-.04-3.77-.6-.54-.43-1.87-2.88-2.45-3.67-6.23-8.35-14.39-17.87-22.24-24.72-1.75-1.53-3.65-3.01-5.57-4.25-.6-.7,2.04-7.02,2.64-8,8.07-13.07,25.76,6.03,31.36,13.13,3.14,3.98,7.46,9.84,7.76,15,.28,4.86-2.34,12.16-7.73,13.11Z"/>
    <path d="M123.43,176.73c-6.41-12.54-16.28-24.37-29.07-30.76,1.78-4.24,5.39-7.98,10.17-8.33,12.1-.91,27.41,19,26.17,30.57-.51,4.69-2.94,7.02-7.26,8.53Z"/>
    <path d="M67.97,196.34c.04.23-3.66,1.79-4.14,2.05-5.15,2.79-9.7,6.65-14.11,10.47-4.46-4.08-9.94-8.33-13.25-13.43-5.64-8.69,4.81-19.2,14.3-13.64,6.41,3.75,11.9,9.46,17.21,14.56Z"/>
  </g>
  <g>
    <path d="M373.18,232.68c-8.14,7.04-15.95,14.72-24.45,21.31-3.85,2.99-5.96,4.58-10.7,5.94-5.67,1.62-11.68,2.38-17.5,3.23l-49.37-44.04c.85-9.35,1.25-19.2,3.21-28.41,1.58-7.4,4.4-11.45,8.57-17.64,6.52-9.66,14.16-20.07,21.59-29.05,3.02-3.66,6.41-8.55,11.41-9.04,12.92-1.25,28.74,22.53,31.11,33.78,1.78,8.47-1.46,16.07-11.21,11.76-8.98-3.97-15.72-13.85-21.18-21.64-2.14-1.69-5.36.44-4.45,3.03,1.07,3.06,4.93,6.47,6.49,9.26.18.33.26.47.24.86-.06,1.21-1.8,5.45-2.37,6.79-1.78,4.17-4.29,8.74-6.88,12.47-1.36,1.95-3.53,4.09-4.62,6.04s1.21,4.66,3.47,3.79c1.66-.64,5.79-6.76,6.99-8.58,3.29-5.01,5.75-10.42,8-15.94,2.96,3.22,6.65,6.15,10.53,8.19,13.31,7.01,23.16-1.74,20.6-15.98-1.55-8.61-6.7-16.63-11.75-23.63v-.4c9.54-13.39,18.86-26.95,28.48-40.29,4.17-5.78,8.52-12.44,12.98-17.89,4.35-5.31,11.22-9.52,16.74-3.04,4.95,5.81,1.78,13.86-1.85,19.36-10.52,15.97-24.33,30.42-36.35,45.29-1.64,2.43-1.46,5.84.54,8.02,1.93,2.11,5.14,4.87,8.14,4.76,3.68-.13,4.8-2.6,7.08-4.93,10.54-10.78,20.66-21.97,31.43-32.57,4.95-4.87,13.48-13.83,19.36-16.86,12.04-6.22,23.95,4.4,13.16,16.07-5.59,6.04-13.57,12.45-19.81,18.1-10.83,9.79-21.9,19.3-32.67,29.16l-.34.19c-5.17-.45-10.24,1.23-14.87,3.4-9.09,4.26-27.12,16.81-30.15,26.45-2.95,9.38,6.5,17.96,15.15,19.16,1.01,6.23,4.57,10.82,10.75,12.64.62.18,4.49.61,4.51.89Z"/>
    <path d="M391.15,177.22c3.71,2.5,5.24,7.17,3.98,11.42-1.03,3.48-6.21,6.93-9.13,9.17-5.72,4.39-17.64,13.15-24.17,15.36-6.64,2.25-16.66-5.51-13.26-12.8s18.58-17.77,26.04-21.41c4.9-2.39,11.48-5.14,16.54-1.73Z"/>
    <path d="M397.03,196.06c3.65,1.46,7.64,4.21,7.93,8.49.61,8.84-15,18.14-22.31,20.7-6.33,2.22-15.79,3.32-18.65-4.56-.2-.56-.67-1.78-.3-2.24.34-.42,3.44-1.64,4.26-2.09,10.4-5.63,19.86-12.88,29.06-20.29Z"/>
  </g>
</svg>