<?xml version="1.0" encoding="UTF-8"?>
<svg id="Calque_1" data-name="Calque 1" xmlns="http://www.w3.org/2000/svg" viewBox="0 0 479.71 479.71">
  <path d="M341.61,180.02v122.5l-97.39,39.09v-123.15l97.39-38.43ZM297.4,248.26c-10.44.31-18.26,19.88-9.22,25.15s21.33-12.22,15.52-21.64c-1.29-2.09-3.8-3.59-6.3-3.52Z"/>
  <path d="M235.93,341.6l-97.64-38.85-.19-122.51,97.83,38.86v122.5ZM154.55,207.69c-2.31.04-4.58,1.36-5.56,3.52-4.26,9.42,10.66,23.97,17.67,16.8,6.33-6.47-3.62-20.47-12.11-20.32ZM209.88,247.99c3.56,3.72,11.12,7.24,14.62,1.61,4.71-7.58-6.5-21.88-15.2-18.69-7.07,2.6-3.33,13,.58,17.08ZM192.54,254.85c-6.25-6.66-17.15-6.77-15.53,4.83.87,6.23,9.81,15.19,16.44,12.15s2.83-12.98-.91-16.98ZM153.27,267.47c-1.25.21-2.56.88-3.38,1.85-6.46,7.7,6.77,24.16,15.45,19.38s-1.4-23.03-12.07-21.23ZM210.04,290.17c-6.56,1.36-4.99,10.1-2.41,14.44,5.38,9.06,19.86,11.57,17.71-1.99-.98-6.18-8.71-13.81-15.3-12.45Z"/>
  <path d="M336.37,172.6l-1.08.88-95.63,37.97-93.7-37.33-1.31-1.08,95.01-34.93,96.71,34.49ZM209.2,163.55c-4.79.24-19.33,4.2-14.96,11.2,4.13,6.62,22.85,4,27.03-2.19,4.83-7.16-7.15-9.25-12.07-9.01ZM249.18,179.87c5.19,5.17,24.96,2.71,27.17-4.64s-10.5-7.83-14.86-7.44c-4.87.44-18.74,5.66-12.31,12.07Z"/>
</svg>