<?xml version="1.0" encoding="UTF-8"?>
<svg id="Calque_1" data-name="Calque 1" xmlns="http://www.w3.org/2000/svg" viewBox="0 0 479.71 479.71">
  <defs>
    <style>
      .cls-1 {
        fill: #f59b21;
      }
    </style>
  </defs>
  <path class="cls-1" d="M242.79,43.72c-37.34,24.43-74.52,48.96-110.81,74.93-13.97,10-27.91,20.05-41.85,30.09-8.69,6.26-16.8,14.12-19.3,25.1-2.14,9.39-1.65,18.43,2.12,27.35,3.4,8.07,9.22,15.88,17.18,20.08,3.34,1.41,6.69,2.82,10.03,4.23,7.44,2,14.89,2,22.33,0,17.02-2.64,34.07-5.1,51.14-7.4l-11.17,1.5c75.94-10.16,152.32-16.87,228.87-20.04-7.07-26.09-14.13-52.18-21.2-78.27-37.38,22.09-77.74,39.42-117.36,57.01-43.72,19.42-87.82,38.05-131.22,58.19-15.07,6.99-30.21,14.06-44.62,22.35-15.65,9.02-31.4,20.47-36.27,38.9-6.27,23.72,8.64,48.46,32.23,54.63,7.66,2,15.95,2.63,23.89,2.3,11.82-.49,23.63-1.97,35.4-3.05,16.16-1.48,32.32-2.95,48.48-4.39,66.17-5.9,132.54-12.09,198.98-13.75,6.3-.16,12.61-.25,18.92-.26-3.72-27.5-7.44-55-11.17-82.5-63,17.19-126.71,40.17-180.06,78.68-17.1,12.34-33.53,25.66-48.43,40.61-7.61,7.63-12.3,18.91-12.3,29.7s4.58,22.61,12.3,29.7c16.75,15.37,42.82,16.62,59.4,0,9.69-9.72,19.98-18.79,30.81-27.22l-8.5,6.57c27.07-20.87,57.08-37.35,88.49-50.72-3.34,1.41-6.69,2.82-10.03,4.23,29.43-12.41,59.87-22.14,90.67-30.54,20.22-5.52,32.82-25.69,30.08-46.08-2.74-20.41-20.2-36.44-41.25-36.42-42.92.04-85.86,3.26-128.63,6.53-47.77,3.65-95.48,8.01-143.18,12.37-12.92,1.18-26.92,3.97-39.96,2.31,3.72.5,7.44,1,11.17,1.5-1.22-.17-2.43-.4-3.58-.87,3.34,1.41,6.69,2.82,10.03,4.23-.4-.17-.77-.37-1.12-.63,2.83,2.19,5.67,4.38,8.5,6.57-.2-.16-.37-.33-.53-.52,2.19,2.83,4.38,5.67,6.57,8.5-.11-.15-.19-.3-.27-.47,1.41,3.34,2.82,6.69,4.23,10.03-.06-.17-.11-.33-.13-.5.5,3.72,1,7.44,1.5,11.17-.02-.18-.02-.36,0-.54-.5,3.72-1,7.44-1.5,11.17.05-.31.13-.6.25-.89-1.41,3.34-2.82,6.69-4.23,10.03.24-.54.56-1.02.91-1.49-2.19,2.83-4.38,5.67-6.57,8.5,1.21-1.52,2.71-2.77,4.24-3.96-2.83,2.19-5.67,4.38-8.5,6.57,11.09-8.47,24.28-14.51,36.75-20.59,20.06-9.79,40.45-18.89,60.86-27.92,47.96-21.24,96.27-41.74,143.76-64.03,21.48-10.08,42.97-20.4,63.41-32.48,15.41-9.11,25-29.81,19.3-47.43-5.54-17.13-21.57-31.62-40.5-30.83-73.57,3.05-147,9.33-220.01,18.87-23.76,3.1-47.48,6.41-71.16,10.08,10.79,25.59,21.58,51.18,32.36,76.77,37.14-26.75,74.25-53.46,112.47-78.66,13.38-8.82,26.79-17.58,40.2-26.35,9.13-5.97,16.35-14.39,19.3-25.1,2.77-10.05,1.52-23.44-4.23-32.36-5.78-8.97-14.39-16.86-25.1-19.3s-22.88-1.97-32.36,4.23h0Z"/>
  <path d="M142.01,373.89c.78-12.57,5.56-24.73,13.3-34.6l137.36-165.54c5.86,3.71,11.49,8.19,16.53,12.99.92.88,3.12,2.82,3.75,3.73.12.17.28.26.1.49l-137.68,162.27c-8.68,10.14-20.27,17.59-33.34,20.65Z"/>
  <path d="M338.1,373.89c-12.05-2.87-22.96-9.47-31.37-18.48l-61.85-72.87,16.61-19.57,64.97,78.41c6.75,9.49,11.03,20.81,11.64,32.51Z"/>
  <path d="M187.34,173.72l47.82,57.58-16.55,20.26-51.58-60.67c-.03-.36,2-2.27,2.41-2.66,2.08-2.02,4.3-4.01,6.5-5.89,3.62-3.1,7.45-5.96,11.41-8.61Z"/>
  <path d="M353.99,105.87c19.26-1.98,21.2,27.77.53,27.28-.62-.01-1.32-.52-1.89.08l-29.88,40.93-.65.27c-3.29-3.15-6.72-6.17-10.27-9.02-1.27-1.01-3.18-2.14-4.29-3.18-.14-.13-.39-.17-.32-.45l35.49-37.1c.23-.52-.61-2.75-.68-3.63-.66-7.38,4.43-14.41,11.95-15.18Z"/>
  <path d="M122.69,105.87c9.9-1.12,17.02,7.31,15.13,16.9-.11.58-.66,1.43-.44,1.92l35.7,37.08c-5.28,4.06-10.5,8.2-15.24,12.88l-30.29-41.49c-.57-.48-1.3-.02-1.96,0-9.42.3-16.62-7.56-14.41-16.96,1.23-5.23,6.13-9.72,11.5-10.33Z"/>
  <path d="M262.58,154.58l2.94-9.63c32.46,10.38,61.25,33.72,78.31,63.2.59,1.01,1.85,2.94,2.18,3.93.06.18.23.33.07.53l-8.04,4.37-.73.07c-15.92-29.25-42.94-52.23-74.73-62.47Z"/>
  <path d="M214.57,144.96l3.08,9.44c-31.76,10.55-58.89,33.29-74.85,62.65l-8.85-4.44c16.8-31.79,46.39-56.58,80.63-67.65Z"/>
</svg>