<?xml version="1.0" encoding="UTF-8"?>
<svg id="Calque_1" data-name="Calque 1" xmlns="http://www.w3.org/2000/svg" viewBox="0 0 479.71 479.71">
  <defs>
    <style>
      .cls-1 {
        fill: #90c6d3;
      }
    </style>
  </defs>
  <path class="cls-1" d="M242.79,43.72c-37.34,24.43-74.52,48.96-110.81,74.93-13.97,10-27.91,20.05-41.85,30.09-8.69,6.26-16.8,14.12-19.3,25.1-2.14,9.39-1.65,18.43,2.12,27.35,3.4,8.07,9.22,15.88,17.18,20.08l10.03,4.23c7.44,2,14.89,2,22.33,0,17.02-2.64,34.07-5.1,51.14-7.4-3.72.5-7.44,1-11.17,1.5,75.94-10.16,152.32-16.87,228.87-20.04-7.07-26.09-14.13-52.18-21.2-78.27-37.38,22.09-77.74,39.42-117.36,57.01-43.72,19.42-87.82,38.05-131.22,58.19-15.07,6.99-30.21,14.06-44.62,22.35-15.65,9.02-31.4,20.47-36.27,38.9-6.27,23.72,8.64,48.46,32.23,54.63,7.66,2,15.95,2.63,23.89,2.3,11.82-.49,23.63-1.97,35.4-3.05,16.16-1.48,32.32-2.95,48.48-4.39,66.17-5.9,132.54-12.09,198.98-13.75,6.3-.16,12.61-.25,18.92-.26-3.72-27.5-7.44-55-11.17-82.5-63,17.19-126.71,40.17-180.06,78.68-17.1,12.34-33.53,25.66-48.43,40.61-7.61,7.63-12.3,18.91-12.3,29.7s4.58,22.61,12.3,29.7c16.75,15.37,42.82,16.62,59.4,0,9.69-9.72,19.98-18.79,30.81-27.22l-8.5,6.57c27.07-20.87,57.08-37.35,88.49-50.72l-10.03,4.23c29.43-12.41,59.87-22.14,90.67-30.54,20.22-5.52,32.82-25.69,30.08-46.08-2.74-20.41-20.2-36.44-41.25-36.42-42.92.04-85.86,3.26-128.63,6.53-47.77,3.65-95.48,8.01-143.18,12.37-12.92,1.18-26.92,3.97-39.96,2.31l11.17,1.5c-1.22-.17-2.43-.4-3.58-.87,3.34,1.41,6.69,2.82,10.03,4.23-.4-.17-.77-.37-1.12-.63l8.5,6.57c-.2-.16-.37-.33-.53-.52l6.57,8.5c-.11-.15-.19-.3-.27-.47l4.23,10.03c-.06-.17-.11-.33-.13-.5l1.5,11.17c-.02-.18-.02-.36,0-.54l-1.5,11.17c.05-.31.13-.6.25-.89l-4.23,10.03c.24-.54.56-1.02.91-1.49l-6.57,8.5c1.21-1.52,2.71-2.77,4.24-3.96l-8.5,6.57c11.09-8.47,24.28-14.51,36.75-20.59,20.06-9.79,40.45-18.89,60.86-27.92,47.96-21.24,96.27-41.74,143.76-64.03,21.48-10.08,42.97-20.4,63.41-32.48,15.41-9.11,25-29.81,19.3-47.43s-21.57-31.62-40.5-30.83c-73.57,3.05-147,9.33-220.01,18.87-23.76,3.1-47.48,6.41-71.16,10.08l32.36,76.77c37.14-26.75,74.25-53.46,112.47-78.66,13.38-8.82,26.79-17.58,40.2-26.35,9.13-5.97,16.35-14.39,19.3-25.1,2.77-10.05,1.52-23.44-4.23-32.36s-14.39-16.86-25.1-19.3-22.88-1.97-32.36,4.23h0Z"/>
  <g>
    <path d="M354.32,241.45c-44.42,1.99-88.85,8.87-129.76,26.6l-35.16-61.02c7.91-6.1,15.69-12.41,23.07-19.16,25.42-23.25,46.07-51.07,64.83-79.84l77.03,133.41Z"/>
    <polygon points="223.91 276.16 183.84 294.53 146.04 229.17 182.25 203.54 223.91 276.16"/>
    <path d="M236.26,321.98c-.6,7.94,5.66,13.85,13.37,14.13l3.97,6.92c1.84,2.51,3.83.2,6.06-.44,1.6-.46,2.97-.68,4.61-.29,4.35,1.03,7.19,6.57,9.16,10.18l-32.91,19.2-44.91-77.44,19.87-9.36,13.62,23.37c-.88,5.73,1.96,11.25,7.17,13.74Z"/>
    <path d="M147.34,240.14l27.59,47.94-13.07,7.38c-22.58,9-43.97-20-33.94-40.32,3.94-7.98,11.92-10.28,18.87-14.91l.55-.09Z"/>
    <path d="M307.8,151.39c9.53-4.37,22.29-2.69,27.79,6.99s.53,21.53-8.01,27.52l-19.78-34.51Z"/>
  </g>
</svg>