<?xml version="1.0" encoding="UTF-8"?>
<svg id="Calque_1" data-name="Calque 1" xmlns="http://www.w3.org/2000/svg" viewBox="0 0 479.71 479.71">
  <defs>
    <style>
      .cls-1 {
        fill: #f59b22;
      }
    </style>
  </defs>
  <path class="cls-1" d="M299.94,245.58l-8.56.4c-3.13.15-6.15,2.65-6,6,.14,3.12,2.64,6.16,6,6l8.56-.4c3.13-.15,6.15-2.65,6-6-.14-3.12-2.64-6.16-6-6h0Z"/>
  <path class="cls-1" d="M154.91,226.69c7.72,0,7.73-12,0-12s-7.73,12,0,12h0Z"/>
  <path class="cls-1" d="M242.79,43.72c-37.34,24.43-74.52,48.96-110.81,74.93-13.97,10-27.91,20.05-41.85,30.09-8.69,6.26-16.8,14.12-19.3,25.1-2.14,9.39-1.65,18.43,2.12,27.35,3.4,8.07,9.22,15.88,17.18,20.08,3.34,1.41,6.69,2.82,10.03,4.23,7.44,2,14.89,2,22.33,0,17.02-2.64,34.07-5.1,51.14-7.4l-11.17,1.5c75.94-10.16,152.32-16.87,228.87-20.04-7.07-26.09-14.13-52.18-21.2-78.27-37.38,22.09-77.74,39.42-117.36,57.01-43.72,19.42-87.82,38.05-131.22,58.19-15.07,6.99-30.21,14.06-44.62,22.35-15.65,9.02-31.4,20.47-36.27,38.9-6.27,23.72,8.64,48.46,32.23,54.63,7.66,2,15.95,2.63,23.89,2.3,11.82-.49,23.63-1.97,35.4-3.05,16.16-1.48,32.32-2.95,48.48-4.39,66.17-5.9,132.54-12.09,198.98-13.75,6.3-.16,12.61-.25,18.92-.26-3.72-27.5-7.44-55-11.17-82.5-63,17.19-126.71,40.17-180.06,78.68-17.1,12.34-33.53,25.66-48.43,40.61-7.61,7.63-12.3,18.91-12.3,29.7s4.58,22.61,12.3,29.7c16.75,15.37,42.82,16.62,59.4,0,9.69-9.72,19.98-18.79,30.81-27.22l-8.5,6.57c27.07-20.87,57.08-37.35,88.49-50.72l-10.03,4.23c29.43-12.41,59.87-22.14,90.67-30.54,20.22-5.52,32.82-25.69,30.08-46.08s-20.2-36.44-41.25-36.42c-42.92.04-85.86,3.26-128.63,6.53-47.77,3.65-95.48,8.01-143.18,12.37-12.92,1.18-26.92,3.97-39.96,2.31,3.72.5,7.44,1,11.17,1.5-1.22-.17-2.43-.4-3.58-.87,3.34,1.41,6.69,2.82,10.03,4.23-.4-.17-.77-.37-1.12-.63l8.5,6.57c-.2-.16-.37-.33-.53-.52,2.19,2.83,4.38,5.67,6.57,8.5-.11-.15-.19-.3-.27-.47,1.41,3.34,2.82,6.69,4.23,10.03-.06-.17-.11-.33-.13-.5l1.5,11.17c-.02-.18-.02-.36,0-.54-.5,3.72-1,7.44-1.5,11.17.05-.31.13-.6.25-.89-1.41,3.34-2.82,6.69-4.23,10.03.24-.54.56-1.02.91-1.49-2.19,2.83-4.38,5.67-6.57,8.5,1.21-1.52,2.71-2.77,4.24-3.96l-8.5,6.57c11.09-8.47,24.28-14.51,36.75-20.59,20.06-9.79,40.45-18.89,60.86-27.92,47.96-21.24,96.27-41.74,143.76-64.03,21.48-10.08,42.97-20.4,63.41-32.48,15.41-9.11,25-29.81,19.3-47.43s-21.57-31.62-40.5-30.83c-73.57,3.05-147,9.33-220.01,18.87-23.76,3.1-47.48,6.41-71.16,10.08,10.79,25.59,21.58,51.18,32.36,76.77,37.14-26.75,74.25-53.46,112.47-78.66,13.38-8.82,26.79-17.58,40.2-26.35,9.13-5.97,16.35-14.39,19.3-25.1,2.77-10.05,1.52-23.44-4.23-32.36s-14.39-16.86-25.1-19.3c-10.71-2.44-22.88-1.97-32.36,4.23h0Z"/>
  <g>
    <path d="M341.61,180.02v122.5l-97.39,39.09v-123.15l97.39-38.43ZM297.4,248.26c-10.44.31-18.26,19.88-9.22,25.15s21.33-12.22,15.52-21.64c-1.29-2.09-3.8-3.59-6.3-3.52Z"/>
    <path d="M235.93,341.6l-97.64-38.85-.19-122.51,97.83,38.86v122.5ZM154.55,207.69c-2.31.04-4.58,1.36-5.56,3.52-4.26,9.42,10.66,23.97,17.67,16.8,6.33-6.47-3.62-20.47-12.11-20.32ZM209.88,247.99c3.56,3.72,11.12,7.24,14.62,1.61,4.71-7.58-6.5-21.88-15.2-18.69-7.07,2.6-3.33,13,.58,17.08ZM192.54,254.85c-6.25-6.66-17.15-6.77-15.53,4.83.87,6.23,9.81,15.19,16.44,12.15s2.83-12.98-.91-16.98ZM153.27,267.47c-1.25.21-2.56.88-3.38,1.85-6.46,7.7,6.77,24.16,15.45,19.38s-1.4-23.03-12.07-21.23ZM210.04,290.17c-6.56,1.36-4.99,10.1-2.41,14.44,5.38,9.06,19.86,11.57,17.71-1.99-.98-6.18-8.71-13.81-15.3-12.45Z"/>
    <path d="M336.37,172.6l-1.08.88-95.63,37.97-93.7-37.33-1.31-1.08,95.01-34.93,96.71,34.49ZM209.2,163.55c-4.79.24-19.33,4.2-14.96,11.2,4.13,6.62,22.85,4,27.03-2.19,4.83-7.16-7.15-9.25-12.07-9.01ZM249.18,179.87c5.19,5.17,24.96,2.71,27.17-4.64s-10.5-7.83-14.86-7.44c-4.87.44-18.74,5.66-12.31,12.07Z"/>
  </g>
</svg>