<?xml version="1.0" encoding="UTF-8"?>
<svg id="Calque_1" data-name="Calque 1" xmlns="http://www.w3.org/2000/svg" xmlns:xlink="http://www.w3.org/1999/xlink" viewBox="0 0 1904.39 1904.39">
  <defs>
    <style>
      .cls-1 {
        fill: none;
        stroke: #fff;
        stroke-miterlimit: 10;
        stroke-width: 6px;
      }

      .cls-2 {
        fill: #fff;
      }

      .cls-3 {
        fill: url(#Dégradé_sans_nom_17);
      }

      .cls-4 {
        fill: #f59b21;
      }
    </style>
    <linearGradient id="Dégradé_sans_nom_17" data-name="Dégradé sans nom 17" x1="394.08" y1="952.19" x2="1510.31" y2="952.19" gradientUnits="userSpaceOnUse">
      <stop offset="0" stop-color="#fff"/>
      <stop offset="0" stop-color="#5d7987"/>
      <stop offset="1" stop-color="#3a4c54"/>
    </linearGradient>
  </defs>
  <rect class="cls-3" x="394.08" y="87.14" width="1116.23" height="1730.11" rx="94.25" ry="94.25"/>
  <g>
    <path class="cls-4" d="M1175.23,160.78c-23.93,15.65-47.35,31.82-70.55,48.53-7.35,5.29-11.07,13.7-7.36,22.48s12.21,11.82,21.23,10.42c5.21-.8,10.42-1.58,15.64-2.32,1.3-.18,2.61-.37,3.91-.55.61-.08,3.01-.41,1.09-.15,2.61-.35,5.22-.68,7.83-1.01,10.76-1.35,21.54-2.55,32.33-3.6,21.22-2.06,42.5-3.52,63.81-4.41-3.03-11.18-6.06-22.36-9.08-33.54-43.19,25.54-87.91,48.3-132.41,71.44-6.35,3.3-9.5,11.18-8.59,17.94.86,6.39,5.97,13.88,12.89,14.96,18.43,2.89,36.88,3.76,55.5,4.13,8.47.17,16.94.31,25.4.72,4.56.22,9.11.51,13.66.92,1.95.18,3.9.39,5.84.59,2.24.28,2.59.32,1.05.1,1.3.18,2.59.38,3.89.59,9.26,1.45,19.82-2.36,22.14-12.57,1.96-8.62-2.62-20.58-12.57-22.14-18.43-2.89-36.88-3.76-55.5-4.13-8.47-.17-16.94-.31-25.4-.72-4.56-.22-9.11-.51-13.66-.92-1.95-.18-3.9-.39-5.84-.59-2.24-.28-2.59-.32-1.05-.1-1.3-.18-2.59-.38-3.89-.59,1.43,10.97,2.87,21.93,4.3,32.9,44.5-23.14,89.22-45.89,132.41-71.44,14.9-8.81,9.15-34.31-9.08-33.54-44.95,1.88-89.72,6.46-134.18,13.33l13.87,32.9c23.2-16.71,46.62-32.87,70.55-48.53,7.87-5.15,11.91-16.17,6.46-24.63-5.07-7.86-16.2-11.97-24.63-6.46h0Z"/>
    <path class="cls-2" d="M578.58,487.68h-36.85v-189.32h42.41l43.56,88.06,44.26-88.06h41.71c.58,56.23,1.16,112.46,1.74,168.7h-38.58v-108.68l-38.7,77.17h-20.86l-38.7-79.71v131.85Z"/>
    <path class="cls-2" d="M874.62,467.06h-23.89l-5.44-18.54c-12.51,9.27-26.57,13.98-42.17,14.14-19.93,0-36.92-7.22-50.98-21.67-14.06-14.44-21.09-31.78-21.09-52.02s7.03-37.54,21.09-51.91c14.06-14.37,31.05-21.55,50.98-21.55,15.29,0,29.2,4.48,41.71,13.44l5.33-13.44h25.03c-.19,50.52-.38,101.03-.57,151.55ZM803.12,427.67c10.2,0,18.92-3.78,26.18-11.35,7.26-7.57,10.89-16.68,10.89-27.34s-3.63-19.73-10.89-27.23c-7.26-7.49-15.99-11.24-26.18-11.24s-18.93,3.75-26.19,11.24c-7.26,7.49-10.89,16.57-10.89,27.23s3.63,19.78,10.89,27.34c7.26,7.57,15.99,11.35,26.19,11.35Z"/>
    <path class="cls-2" d="M943.54,467.06h-3.71c-9.89,0-19.2-2.09-27.92-6.26-8.73-4.17-16.03-9.96-21.9-17.38v-.23l28.27-21.55v.23c5.25,6.49,12.51,9.73,21.78,9.73h1.39c9.27-.77,14.91-3.71,16.92-8.81.46-1.08.69-2.39.69-3.94-.16-1.54-.93-3.01-2.32-4.4-2.63-2.93-8.88-6.1-18.77-9.5l-9.73-4.17c-7.73-3.24-14.91-7.49-21.55-12.74-10.04-8.96-15.06-18.92-15.06-29.89,0-4.48.85-9.11,2.55-13.9,3.55-9.11,10.04-16.53,19.47-22.25,8.96-5.1,18.07-7.65,27.34-7.65,18.07,0,33.75,6.8,47.04,20.39h.23l-25.95,24.33c-6.18-6.18-13.36-9.27-21.55-9.27-3.24.31-6.26,1.31-9.04,3.01-2.78,1.7-4.17,3.24-4.17,4.63,0,1.24.7,2.32,2.09,3.24,7.26,5.41,15.21,9.5,23.87,12.28,3.24,1.24,6.41,2.55,9.5,3.94,7.42,3.09,13.98,7.42,19.7,12.98,7.88,8.81,11.82,18.77,11.82,29.89,0,9.27-2.94,18.07-8.81,26.42-9.42,12.51-23.48,19.47-42.17,20.86Z"/>
    <path class="cls-2" d="M1058.03,467.06h-36.33c.29-37.85.58-75.7.87-113.55h-20.16v-28.73h20.62l.46-29.43,34.07-1.85.23,31.28h28.27v28.73h-28.04c0,37.85,0,75.7.01,113.55Z"/>
    <path class="cls-2" d="M1174.87,465.94c-19.55,2.97-37.27-1.56-53.16-13.6-15.89-12.04-25.35-27.98-28.37-47.84-3.02-19.85,1.28-37.85,12.89-53.99,11.61-16.14,27.19-25.7,46.74-28.67,16.52-2.35,31.98.69,46.39,9.12,14.1,8.48,24.26,20.3,30.47,35.45,2.38,5.42,4.01,10.96,4.87,16.61l-98.67,37.03c9.53,10.27,20.79,14.42,33.77,12.45,6.87-1.04,12.97-3.81,18.31-8.29,5.33-4.48,9.19-10.19,11.58-17.11l31.85,10.63c-4.43,13.02-11.7,23.81-21.8,32.38-10.11,8.57-21.73,13.85-34.86,15.85ZM1126.41,390.8l64.31-24.07c-4.28-4.51-9.39-7.79-15.33-9.86-5.94-2.06-11.74-2.67-17.39-1.81-8.4,1.28-15.72,5.32-21.95,12.13-6.23,6.81-9.45,14.68-9.65,23.62Z"/>
    <path class="cls-2" d="M1253.23,467.06c.32-49.9.65-99.8.97-149.7h34.99l.23,15.53c7.26-11.59,18.69-17.38,34.29-17.38,14.68,0,27.65,8.81,38.93,26.42l-29.43,19c-4.94-6.95-11.12-10.43-18.54-10.43-10.97,0-19.23,5.72-24.8,17.15.23,33.14.46,66.27.68,99.41h-37.34Z"/>
    <path class="cls-1" d="M1123.76,287.71c-12.06-74.36-14.64-101.17-12.15-101.68,4.48-.92,22.3,83.92,34.04,82.4,2.99-.39,5.31-6.32,9.1-37.47,6.2-50.94,6.73-90.41,7.78-90.42,1.08-.01,3.47,41.43,7.64,90.12,1.69,19.71,3.34,36.86,6.61,37.03,7.15.37,26.59-66.72,30.37-82.37.29-1.22,2.1-1,2.07.25-.39,17.4-.85,34.91-1.39,52.53-.74,24.45-1.61,48.67-2.6,72.67-6.71-3.94-22.69-12.09-44.51-11.83-23.41.27-40.07,10.06-46.51,14.33"/>
    <path class="cls-2" d="M759.05,298.6h-25.5l-.47-64.47h21.94c4.34,0,8.04,1.61,11.09,4.81,3.05,3.21,4.57,7.08,4.57,11.61,0,3.13-.8,6.04-2.4,8.74,3.26,1.78,5.87,4.3,7.83,7.56,1.96,3.26,2.95,6.89,2.95,10.88,0,5.77-1.95,10.69-5.85,14.76-3.9,4.07-8.62,6.11-14.15,6.11ZM752.85,256.22c1.71,0,3.15-.55,4.34-1.66,1.19-1.1,1.78-2.44,1.78-4s-.59-2.98-1.78-4.08c-1.19-1.1-2.63-1.66-4.34-1.66h-7.6v11.41h7.6ZM756.88,287.68c2.95-.11,5.43-1.1,7.44-2.99,2.02-1.89,3.02-4.21,3.02-6.96s-1.02-5.01-3.06-6.96c-2.04-1.94-4.51-2.91-7.4-2.91h-11.63v19.82h11.63Z"/>
    <path class="cls-2" d="M819.28,300.71l-18.76-29.93.78,27.34-13.41.49.16-64.47h21.47c4.81,0,8.92,1.78,12.33,5.34,3.41,3.56,5.12,7.85,5.12,12.86,0,4.21-1.2,7.91-3.61,11.12-2.4,3.21-5.49,5.38-9.26,6.51l15.35,24.02-10.16,6.71ZM808.04,259.21c1.86,0,3.41-.65,4.65-1.94s1.89-2.94,1.94-4.93c-.05-1.94-.7-3.56-1.94-4.85s-2.79-1.97-4.65-2.02h-7.52v13.75h7.52Z"/>
    <path class="cls-2" d="M844.71,299.9l-10.7-5.82,25.04-59.94,17.6-.65,13.72,63.25-11.16,2.83-4.65-21.6-19.77-2.18-10.08,24.1ZM872.31,267.71l-4.73-22.32-8.76,20.87,13.49,1.46Z"/>
    <path class="cls-2" d="M911.38,298.6h-12.79v-64.47h13.33l21.32,41.98-.62-38.66,12.79-.49v60.91h-12.87l-21.78-42.14.62,42.87Z"/>
    <path class="cls-2" d="M978.58,298.6h-21.86l.78-64.47h21.09c5.68,0,10.74,1.46,15.16,4.37,4.42,2.91,7.89,6.81,10.43,11.69,2.53,4.88,3.8,10.29,3.8,16.22s-1.27,11.32-3.8,16.18c-2.53,4.85-6.01,8.74-10.43,11.65s-9.47,4.37-15.16,4.37ZM975.87,287.68c5.84,0,10.59-2.02,14.26-6.07,3.67-4.04,5.5-9.11,5.5-15.21s-1.84-11.26-5.5-15.33c-3.67-4.07-8.43-6.11-14.26-6.11h-6.36v42.71h6.36Z"/>
  </g>
</svg>