<?xml version="1.0" encoding="UTF-8"?>
<svg id="Calque_1" data-name="Calque 1" xmlns="http://www.w3.org/2000/svg" viewBox="0 0 479.71 479.71">
  <defs>
    <style>
      .cls-1 {
        fill: #e83c51;
      }

      .cls-2 {
        fill: #ec6ca5;
      }
    </style>
  </defs>
  <path class="cls-2" d="M289.61,258.21c7.72,0,7.73-12,0-12s-7.73,12,0,12h0Z"/>
  <path class="cls-1" d="M242.79,43.72c-37.34,24.43-74.52,48.96-110.81,74.93-13.97,10-27.91,20.05-41.85,30.09-8.69,6.26-16.8,14.12-19.3,25.1-2.14,9.39-1.65,18.43,2.12,27.35,3.4,8.07,9.22,15.88,17.18,20.08,3.34,1.41,6.69,2.82,10.03,4.23,7.44,2,14.89,2,22.33,0,17.02-2.64,34.07-5.1,51.14-7.4l-11.17,1.5c75.94-10.16,152.32-16.87,228.87-20.04-7.07-26.09-14.13-52.18-21.2-78.27-37.38,22.09-77.74,39.42-117.36,57.01-43.72,19.42-87.82,38.05-131.22,58.19-15.07,6.99-30.21,14.06-44.62,22.35-15.65,9.02-31.4,20.47-36.27,38.9-6.27,23.72,8.64,48.46,32.23,54.63,7.66,2,15.95,2.63,23.89,2.3,11.82-.49,23.63-1.97,35.4-3.05,16.16-1.48,32.32-2.95,48.48-4.39,66.17-5.9,132.54-12.09,198.98-13.75,6.3-.16,12.61-.25,18.92-.26-3.72-27.5-7.44-55-11.17-82.5-63,17.19-126.71,40.17-180.06,78.68-17.1,12.34-33.53,25.66-48.43,40.61-7.61,7.63-12.3,18.91-12.3,29.7s4.58,22.61,12.3,29.7c16.75,15.37,42.82,16.62,59.4,0,9.69-9.72,19.98-18.79,30.81-27.22l-8.5,6.57c27.07-20.87,57.08-37.35,88.49-50.72-3.34,1.41-6.69,2.82-10.03,4.23,29.43-12.41,59.87-22.14,90.67-30.54,20.22-5.52,32.82-25.69,30.08-46.08s-20.2-36.44-41.25-36.42c-42.92.04-85.86,3.26-128.63,6.53-47.77,3.65-95.48,8.01-143.18,12.37-12.92,1.18-26.92,3.97-39.96,2.31,3.72.5,7.44,1,11.17,1.5-1.22-.17-2.43-.4-3.58-.87,3.34,1.41,6.69,2.82,10.03,4.23-.4-.17-.77-.37-1.12-.63l8.5,6.57c-.2-.16-.37-.33-.53-.52,2.19,2.83,4.38,5.67,6.57,8.5-.11-.15-.19-.3-.27-.47,1.41,3.34,2.82,6.69,4.23,10.03-.06-.17-.11-.33-.13-.5.5,3.72,1,7.44,1.5,11.17-.02-.18-.02-.36,0-.54-.5,3.72-1,7.44-1.5,11.17.05-.31.13-.6.25-.89-1.41,3.34-2.82,6.69-4.23,10.03.24-.54.56-1.02.91-1.49-2.19,2.83-4.38,5.67-6.57,8.5,1.21-1.52,2.71-2.77,4.24-3.96-2.83,2.19-5.67,4.38-8.5,6.57,11.09-8.47,24.28-14.51,36.75-20.59,20.06-9.79,40.45-18.89,60.86-27.92,47.96-21.24,96.27-41.74,143.76-64.03,21.48-10.08,42.97-20.4,63.41-32.48,15.41-9.11,25-29.81,19.3-47.43s-21.57-31.62-40.5-30.83c-73.57,3.05-147,9.33-220.01,18.87-23.76,3.1-47.48,6.41-71.16,10.08,10.79,25.59,21.58,51.18,32.36,76.77,37.14-26.75,74.25-53.46,112.47-78.66,13.38-8.82,26.79-17.58,40.2-26.35,9.13-5.97,16.35-14.39,19.3-25.1,2.77-10.05,1.52-23.44-4.23-32.36-5.78-8.97-14.39-16.86-25.1-19.3s-22.88-1.97-32.36,4.23h0Z"/>
  <g>
    <path d="M278,284.32l-2.48,12.92-22.08,12.33-27.04.06-22.08-12.43-2.58-12.82-16.35-3.13-25.69-35.37.13-.6,9.57-13.97-6.81-54.9c-1.16-19.19,22.68-35.96,37.97-43.11,26.66-12.47,51.1-12.69,77.87-.37,16.92,7.78,37.64,22.38,38.88,42.72l-6.86,55.49,9.57,14.2.07.6-25.66,35.4-16.41,2.98ZM196.31,222.01c-9.99.79-13.06,6.63-12.96,16,.07,6.36,1.31,23.21,9.77,24.18,11.59,1.34,30.34-5.02,35.17-16.55,3.33-7.95,1.16-11.74-5.73-15.86-6.2-3.71-19.11-8.34-26.25-7.77ZM279.42,222.01c-6.84.66-22.43,6.41-27.14,11.45-2.57,2.74-2.55,5.02-1.89,8.57,2.43,13.21,19.37,19.51,31.21,20.18,5.6.32,8.73-.14,11.44-5.44,3.06-5.99,4.67-21.6,2.04-27.71s-9.67-7.63-15.66-7.06ZM239.76,256.83l-13.16,23.64,5.86,4.34,7.39-4.36,7.58,4.36,5.67-4.37v-.29s-13.34-23.33-13.34-23.33Z"/>
    <path d="M195.42,303.77l4.11,14.73,8.02,6.04.12.38c-8.81,3.39-16.73,8.84-22.91,15.96-3.77,4.34-8.5,12.65-14.05,14.34-10.41,3.18-10.69-7.04-14.33-13.6-3.86-6.94-10.34-10.63-17.96-12.28l-.3-.27c.1-4.91,2.84-9.9,7.59-11.66,2.33-.87,3.89-.49,6.21-.65,13.59-.96,26.57-4.59,38.76-10.6.62-.31,4.5-2.61,4.75-2.39Z"/>
    <path d="M341.61,329.37c-7.54,1.4-14.15,5.2-18.02,11.94s-4.37,17.8-15.12,13.7c-5.45-2.08-10.25-10.66-14.25-15.06-6.1-6.71-13.73-11.8-22.17-15.12l8.24-6.42,4.29-14.64c12.43,6.61,26.26,11.72,40.44,12.8,4.32.33,7.92-.49,11.66,2.26,3.27,2.4,5.04,6.5,4.94,10.54Z"/>
    <path d="M133.42,220.68c1.77,8.96,3.52,18.83,11.07,24.83,2.36,1.88,5.14,3.35,7.82,4.7l23.62,32.6c-8.06-2.92-16.08-6.06-24.49-7.89-12.96-2.81-26.31-2.39-39.52-2.5.04-3.79.64-7.29,2.82-10.45,3.77-5.47,6.08-5.49,5.53-13.39-.38-5.47-2.36-6.48-4.79-10.61-1.73-2.94-2.59-7.56-.56-10.51,3.44-5.01,12.78-6.86,18.5-6.78Z"/>
    <path d="M367.78,272.42l-19.77.18c-4.45.32-8.9.51-13.32,1.15-10.64,1.54-20.76,5.28-30.74,9.06l23.46-32.47c2.51-1.51,5.18-2.74,7.51-4.55,7.76-6.06,9.79-15.88,11.33-25.12,5.27.05,11.11,1.05,15.57,4,4.01,2.65,4.92,5.66,3.71,10.36-.91,3.55-3.67,5.41-4.95,8.59-1.29,3.21-1.56,8.07-.51,11.37.89,2.78,2.99,4.29,4.62,6.51,2.37,3.21,3.15,6.97,3.08,10.93Z"/>
    <polygon points="238.46 324.55 228.16 324.55 227.89 324.27 227.89 314.25 228.16 313.98 238.18 313.98 238.46 314.25 238.46 324.55"/>
    <rect x="241.43" y="313.98" width="10.39" height="10.58"/>
    <polygon points="225.1 323.81 216.01 319.08 216.01 309.34 225.1 313.88 225.1 323.81"/>
    <polygon points="263.69 309.34 263.69 319.08 254.79 323.81 254.79 313.88 263.69 309.34"/>
    <path d="M213.23,307.48v10.02c-.3.07-.43-.06-.65-.18-.49-.26-5.19-3.81-5.37-4.09l-2.89-10.29.28-.28,8.63,4.82Z"/>
    <polygon points="266.66 317.69 266.66 307.58 275.57 302.57 272.68 313.03 266.66 317.69"/>
  </g>
</svg>