<?xml version="1.0" encoding="UTF-8"?>
<svg id="Calque_1" data-name="Calque 1" xmlns="http://www.w3.org/2000/svg" viewBox="0 0 479.71 479.71">
  <defs>
    <style>
      .cls-1 {
        fill: none;
        stroke: #1d1d1b;
        stroke-width: 2px;
      }

      .cls-2 {
        fill: #1d1d1b;
      }

      .cls-3 {
        fill: #ec6ca5;
      }
    </style>
  </defs>
  <path class="cls-3" d="M242.79,43.72c-37.34,24.43-74.52,48.96-110.81,74.93-13.97,10-27.91,20.05-41.85,30.09-8.69,6.26-16.8,14.12-19.3,25.1-2.14,9.39-1.65,18.43,2.12,27.35,3.4,8.07,9.22,15.88,17.18,20.08l10.03,4.23c7.44,2,14.89,2,22.33,0,17.02-2.64,34.07-5.1,51.14-7.4-3.72.5-7.44,1-11.17,1.5,75.94-10.16,152.32-16.87,228.87-20.04-7.07-26.09-14.13-52.18-21.2-78.27-37.38,22.09-77.74,39.42-117.36,57.01-43.72,19.42-87.82,38.05-131.22,58.19-15.07,6.99-30.21,14.06-44.62,22.35-15.65,9.02-31.4,20.47-36.27,38.9-6.27,23.72,8.64,48.46,32.23,54.63,7.66,2,15.95,2.63,23.89,2.3,11.82-.49,23.63-1.97,35.4-3.05,16.16-1.48,32.32-2.95,48.48-4.39,66.17-5.9,132.54-12.09,198.98-13.75,6.3-.16,12.61-.25,18.92-.26-3.72-27.5-7.44-55-11.17-82.5-63,17.19-126.71,40.17-180.06,78.68-17.1,12.34-33.53,25.66-48.43,40.61-7.61,7.63-12.3,18.91-12.3,29.7s4.58,22.61,12.3,29.7c16.75,15.37,42.82,16.62,59.4,0,9.69-9.72,19.98-18.79,30.81-27.22l-8.5,6.57c27.07-20.87,57.08-37.35,88.49-50.72l-10.03,4.23c29.43-12.41,59.87-22.14,90.67-30.54,20.22-5.52,32.82-25.69,30.08-46.08-2.74-20.41-20.2-36.44-41.25-36.42-42.92.04-85.86,3.26-128.63,6.53-47.77,3.65-95.48,8.01-143.18,12.37-12.92,1.18-26.92,3.97-39.96,2.31l11.17,1.5c-1.22-.17-2.43-.4-3.58-.87,3.34,1.41,6.69,2.82,10.03,4.23-.4-.17-.77-.37-1.12-.63l8.5,6.57c-.2-.16-.37-.33-.53-.52,2.19,2.83,4.38,5.67,6.57,8.5-.11-.15-.19-.3-.27-.47l4.23,10.03c-.06-.17-.11-.33-.13-.5l1.5,11.17c-.02-.18-.02-.36,0-.54l-1.5,11.17c.05-.31.13-.6.25-.89l-4.23,10.03c.24-.54.56-1.02.91-1.49l-6.57,8.5c1.21-1.52,2.71-2.77,4.24-3.96l-8.5,6.57c11.09-8.47,24.28-14.51,36.75-20.59,20.06-9.79,40.45-18.89,60.86-27.92,47.96-21.24,96.27-41.74,143.76-64.03,21.48-10.08,42.97-20.4,63.41-32.48,15.41-9.11,25-29.81,19.3-47.43-5.54-17.13-21.57-31.62-40.5-30.83-73.57,3.05-147,9.33-220.01,18.87-23.76,3.1-47.48,6.41-71.16,10.08,10.79,25.59,21.58,51.18,32.36,76.77,37.14-26.75,74.25-53.46,112.47-78.66,13.38-8.82,26.79-17.58,40.2-26.35,9.13-5.97,16.35-14.39,19.3-25.1,2.77-10.05,1.52-23.44-4.23-32.36s-14.39-16.86-25.1-19.3-22.88-1.97-32.36,4.23h0Z"/>
  <g>
    <g>
      <path class="cls-2" d="M190.42,290.94l-9.64-10.69c-8.98,5.99-18.83,9.02-29.57,9.11-9.77,0-18.68-2.44-26.73-7.33-8.05-4.88-14.48-11.46-19.27-19.73-4.8-8.27-7.19-17.38-7.19-27.32s2.4-19.16,7.19-27.39c4.79-8.23,11.22-14.8,19.27-19.73,8.05-4.93,16.96-7.39,26.73-7.39s18.68,2.46,26.73,7.39c8.05,4.93,14.47,11.51,19.27,19.73,4.79,8.23,7.19,17.36,7.19,27.39-.09,12.67-4.01,24.02-11.75,34.06l9.77,10.96-12.01,10.96ZM151.22,269.42c5.63,0,10.96-1.41,15.97-4.22l-12.94-14.12,12.14-10.96,12.54,13.86c3.7-5.81,5.54-12.14,5.54-19.01,0-9.5-3.26-17.64-9.77-24.42-6.51-6.78-14.34-10.16-23.5-10.16s-16.98,3.39-23.5,10.16c-6.51,6.78-9.77,14.92-9.77,24.42s3.25,17.62,9.77,24.35c6.51,6.73,14.34,10.1,23.5,10.1Z"/>
      <path class="cls-2" d="M247.05,289.35c-9.15,0-17.01-3.34-23.56-10.03-6.56-6.69-9.83-14.74-9.83-24.16v-73.92l20.72,1.06-.53,72.86c0,3.87,1.25,7.17,3.76,9.9,2.51,2.73,5.65,4.09,9.44,4.09s7.06-1.36,9.57-4.09c2.51-2.73,3.76-6.03,3.76-9.9l-.53-71.81h20.72v71.81c0,9.42-3.28,17.47-9.83,24.16-6.56,6.69-14.45,10.03-23.69,10.03Z"/>
      <path class="cls-2" d="M314.76,287.51l-21.78-.53.53-104.41,21.25-.79v105.73Z"/>
      <path class="cls-2" d="M382.35,288.3h-58.87v-16.1l33.13-73.52h-28.12v-16.37h50.69v16.5l-32.87,73.26h36.04v16.24Z"/>
    </g>
    <g>
      <path class="cls-2" d="M190.42,290.94l-9.64-10.69c-8.98,5.99-18.83,9.02-29.57,9.11-9.77,0-18.68-2.44-26.73-7.33-8.05-4.88-14.48-11.46-19.27-19.73-4.8-8.27-7.19-17.38-7.19-27.32s2.4-19.16,7.19-27.39c4.79-8.23,11.22-14.8,19.27-19.73,8.05-4.93,16.96-7.39,26.73-7.39s18.68,2.46,26.73,7.39c8.05,4.93,14.47,11.51,19.27,19.73,4.79,8.23,7.19,17.36,7.19,27.39-.09,12.67-4.01,24.02-11.75,34.06l9.77,10.96-12.01,10.96ZM151.22,269.42c5.63,0,10.96-1.41,15.97-4.22l-12.94-14.12,12.14-10.96,12.54,13.86c3.7-5.81,5.54-12.14,5.54-19.01,0-9.5-3.26-17.64-9.77-24.42-6.51-6.78-14.34-10.16-23.5-10.16s-16.98,3.39-23.5,10.16c-6.51,6.78-9.77,14.92-9.77,24.42s3.25,17.62,9.77,24.35c6.51,6.73,14.34,10.1,23.5,10.1Z"/>
      <path class="cls-2" d="M247.05,289.35c-9.15,0-17.01-3.34-23.56-10.03-6.56-6.69-9.83-14.74-9.83-24.16v-73.92l20.72,1.06-.53,72.86c0,3.87,1.25,7.17,3.76,9.9,2.51,2.73,5.65,4.09,9.44,4.09s7.06-1.36,9.57-4.09c2.51-2.73,3.76-6.03,3.76-9.9l-.53-71.81h20.72v71.81c0,9.42-3.28,17.47-9.83,24.16-6.56,6.69-14.45,10.03-23.69,10.03Z"/>
      <path class="cls-2" d="M314.76,287.51l-21.78-.53.53-104.41,21.25-.79v105.73Z"/>
      <path class="cls-2" d="M382.35,288.3h-58.87v-16.1l33.13-73.52h-28.12v-16.37h50.69v16.5l-32.87,73.26h36.04v16.24Z"/>
    </g>
    <g>
      <path class="cls-1" d="M197.22,207.58c-4.8-8.23-11.22-14.8-19.27-19.73-8.05-4.93-16.96-7.39-26.73-7.39s-18.68,2.46-26.73,7.39c-8.05,4.93-14.48,11.51-19.27,19.73-4.8,8.23-7.19,17.36-7.19,27.39s2.4,19.05,7.19,27.32c4.79,8.27,11.22,14.85,19.27,19.73,8.05,4.88,16.96,7.33,26.73,7.33,10.74-.09,20.59-3.12,29.57-9.11l9.64,10.69,12.01-10.96-9.77-10.96c7.74-10.03,11.66-21.38,11.75-34.06,0-10.03-2.4-19.16-7.19-27.39ZM178.94,253.98l-12.54-13.86-12.14,10.96,12.94,14.12c-5.02,2.82-10.34,4.22-15.97,4.22-9.15,0-16.98-3.37-23.5-10.1-6.51-6.73-9.77-14.85-9.77-24.35s3.25-17.64,9.77-24.42c6.51-6.78,14.34-10.16,23.5-10.16s16.98,3.39,23.5,10.16c6.51,6.78,9.77,14.92,9.77,24.42,0,6.86-1.85,13.2-5.54,19.01Z"/>
      <path class="cls-1" d="M260.38,255.17c0,3.87-1.25,7.17-3.76,9.9-2.51,2.73-5.7,4.09-9.57,4.09s-6.93-1.36-9.44-4.09c-2.51-2.73-3.76-6.03-3.76-9.9l.53-72.86-20.72-1.06v73.92c0,9.42,3.28,17.47,9.83,24.16,6.55,6.69,14.41,10.03,23.56,10.03s17.14-3.34,23.69-10.03c6.55-6.69,9.83-14.74,9.83-24.16v-71.81h-20.72l.53,71.81Z"/>
      <polygon class="cls-1" points="292.98 286.98 314.76 287.51 314.76 181.77 293.51 182.57 292.98 286.98"/>
      <polygon class="cls-1" points="346.31 272.06 379.18 198.8 379.18 182.3 328.49 182.3 328.49 198.67 356.61 198.67 323.47 272.19 323.47 288.3 382.35 288.3 382.35 272.06 346.31 272.06"/>
    </g>
  </g>
</svg>