<?xml version="1.0" encoding="UTF-8"?>
<svg id="Calque_1" data-name="Calque 1" xmlns="http://www.w3.org/2000/svg" viewBox="0 0 219.49 198.93">
  <defs>
    <style>
      .cls-1 {
        fill: none;
        stroke: #1d1d1b;
        stroke-miterlimit: 10;
        stroke-width: 6px;
      }

      .cls-2 {
        fill: #f59b21;
      }
    </style>
  </defs>
  <path class="cls-2" d="M110.8,45.27c-19.99,13.08-39.55,26.58-58.93,40.54-7.35,5.29-11.07,13.7-7.36,22.48,3.74,8.85,12.21,11.81,21.23,10.42,4.57-.7,9.14-1.39,13.72-2.03.01,0,5.9-.81,3.06-.43,2.61-.35,5.23-.68,7.85-1.01,8.5-1.05,17.01-2,25.54-2.82,17.68-1.71,35.4-2.92,53.14-3.67-3.03-11.18-6.06-22.36-9.08-33.54-36.08,21.33-73.43,40.35-110.61,59.67-6.35,3.3-9.5,11.19-8.59,17.94.86,6.39,5.97,13.89,12.89,14.96,15.56,2.42,31.1,3.23,46.82,3.55,7.18.14,14.37.26,21.54.61,3.59.17,7.18.39,10.76.71,1.96.17,3.91.37,5.86.59.65.08,1.3.16,1.95.24-1.54-.19-1.18-.13,1.06.2,9.26,1.44,19.81-2.35,22.14-12.57,1.96-8.61-2.62-20.59-12.57-22.14-15.56-2.42-31.1-3.23-46.82-3.55-7.18-.14-14.37-.26-21.54-.61-3.59-.17-7.18-.39-10.76-.71-1.96-.17-3.91-.37-5.86-.59-.65-.08-1.3-.16-1.95-.24,1.54.19,1.18.13-1.06-.2,1.43,10.97,2.87,21.93,4.3,32.9,37.18-19.33,74.53-38.34,110.61-59.67,14.9-8.81,9.15-34.31-9.08-33.54-37.82,1.59-75.47,5.47-112.88,11.24,4.62,10.97,9.25,21.93,13.87,32.9,19.38-13.96,38.95-27.46,58.93-40.54,7.87-5.15,11.91-16.17,6.46-24.63-5.07-7.86-16.2-11.97-24.63-6.46h0Z"/>
  <path class="cls-1" d="M80.51,150.27c-10.08-62.12-12.23-84.52-10.15-84.94,3.74-.77,18.63,70.1,28.44,68.83,2.5-.32,4.44-5.28,7.6-31.3,5.18-42.55,5.62-75.53,6.5-75.54.9,0,2.9,34.61,6.38,75.28,1.41,16.46,2.79,30.79,5.52,30.93,5.98.31,22.21-55.74,25.37-68.81.25-1.02,1.75-.84,1.73.21-.33,14.53-.71,29.16-1.16,43.88-.62,20.42-1.34,40.66-2.17,60.71-5.61-3.29-18.96-10.1-37.18-9.89-19.56.23-33.47,8.41-38.85,11.97"/>
</svg>