<?xml version="1.0" encoding="UTF-8"?>
<svg id="Calque_1" data-name="Calque 1" xmlns="http://www.w3.org/2000/svg" viewBox="0 0 479.71 479.71">
  <defs>
    <style>
      .cls-1 {
        fill: #fff;
      }

      .cls-2 {
        fill: #97b651;
      }
    </style>
  </defs>
  <path class="cls-2" d="M242.79,43.72c-37.34,24.43-74.52,48.96-110.81,74.93-13.97,10-27.91,20.05-41.85,30.09-8.69,6.26-16.8,14.12-19.3,25.1-2.14,9.39-1.65,18.43,2.12,27.35,3.4,8.07,9.22,15.88,17.18,20.08l10.03,4.23c7.44,2,14.89,2,22.33,0,17.02-2.64,34.07-5.1,51.14-7.4l-11.17,1.5c75.94-10.16,152.32-16.87,228.87-20.04-7.07-26.09-14.13-52.18-21.2-78.27-37.38,22.09-77.74,39.42-117.36,57.01-43.72,19.42-87.82,38.05-131.22,58.19-15.07,6.99-30.21,14.06-44.62,22.35-15.65,9.02-31.4,20.47-36.27,38.9-6.27,23.72,8.64,48.46,32.23,54.63,7.66,2,15.95,2.63,23.89,2.3,11.82-.49,23.63-1.97,35.4-3.05,16.16-1.48,32.32-2.95,48.48-4.39,66.17-5.9,132.54-12.09,198.98-13.75,6.3-.16,12.61-.25,18.92-.26-3.72-27.5-7.44-55-11.17-82.5-63,17.19-126.71,40.17-180.06,78.68-17.1,12.34-33.53,25.66-48.43,40.61-7.61,7.63-12.3,18.91-12.3,29.7s4.58,22.61,12.3,29.7c16.75,15.37,42.82,16.62,59.4,0,9.69-9.72,19.98-18.79,30.81-27.22l-8.5,6.57c27.07-20.87,57.08-37.35,88.49-50.72l-10.03,4.23c29.43-12.41,59.87-22.14,90.67-30.54,20.22-5.52,32.82-25.69,30.08-46.08s-20.2-36.44-41.25-36.42c-42.92.04-85.86,3.26-128.63,6.53-47.77,3.65-95.48,8.01-143.18,12.37-12.92,1.18-26.92,3.97-39.96,2.31l11.17,1.5c-1.22-.17-2.43-.4-3.58-.87,3.34,1.41,6.69,2.82,10.03,4.23-.4-.17-.77-.37-1.12-.63l8.5,6.57c-.2-.16-.37-.33-.53-.52l6.57,8.5c-.11-.15-.19-.3-.27-.47l4.23,10.03c-.06-.17-.11-.33-.13-.5l1.5,11.17c-.02-.18-.02-.36,0-.54l-1.5,11.17c.05-.31.13-.6.25-.89l-4.23,10.03c.24-.54.56-1.02.91-1.49-2.19,2.83-4.38,5.67-6.57,8.5,1.21-1.52,2.71-2.77,4.24-3.96l-8.5,6.57c11.09-8.47,24.28-14.51,36.75-20.59,20.06-9.79,40.45-18.89,60.86-27.92,47.96-21.24,96.27-41.74,143.76-64.03,21.48-10.08,42.97-20.4,63.41-32.48,15.41-9.11,25-29.81,19.3-47.43s-21.57-31.62-40.5-30.83c-73.57,3.05-147,9.33-220.01,18.87-23.76,3.1-47.48,6.41-71.16,10.08,10.79,25.59,21.58,51.18,32.36,76.77,37.14-26.75,74.25-53.46,112.47-78.66,13.38-8.82,26.79-17.58,40.2-26.35,9.13-5.97,16.35-14.39,19.3-25.1,2.77-10.05,1.52-23.44-4.23-32.36s-14.39-16.86-25.1-19.3c-10.71-2.44-22.88-1.97-32.36,4.23h0Z"/>
  <path d="M241.46,205.6l1.41-13.98c2.68-22.09,10.53-65.11,41.26-60.61,16.74,2.45,24.36,19.97,26.59,34.89,14.34,5.42,30.31,17.17,26.84,34.66-3.87,19.46-30.07,23.51-46.45,24.52-9.37.57-18.31.16-27.65-.18-.67-.02-1.42-.02-2.1,0-.21,0-.65-.13-.61.17,6.24.4,12.49,1.15,18.67,2.12,20.97,3.29,57.98,12.16,54.9,40.23-1.92,17.53-20.12,25.18-35.54,27.21-5.18,12.88-15.99,24.81-31.13,23.13-16.25-1.8-20.21-15.71-22.67-29.51-1.7-9.56-2.9-19.46-3.19-29.16-.07-2.24.42-8.31-.31-9.95-.13-.29-.43-.77-.72-.93v7.75c0,.41-.17.79-.18,1.2-.42,15.89-1.76,31.19-5.75,46.61-4.7,18.15-12.96,35.05-24.74,49.62l-.69.2-9-7.36-.15-.48c2.48-3.03,5.12-5.92,7.53-9.01,7.74-9.95,14.09-21.04,18.37-32.94,6.39-17.75,8.46-36.93,8.34-55.75l-.52.61c-3.94,18-3.78,39.39-14.74,55-6.96,9.92-19.59,14.24-31.35,11.27-13.66-3.45-18.71-17.3-18.81-30.15-5.35-2.1-10.54-4.77-15.08-8.31-18.99-14.77-15.33-36.41,6.13-46.02,16.09-7.2,37.6-7.67,54.99-7.27,1.97.05,3.97-.17,5.91.17l1.48-.18c-9.5-.59-19.02-1.62-28.38-3.36-19.83-3.68-50.05-12.77-47.45-38.47,1.79-17.68,19.95-25.31,35.44-27.44,5.36-15.1,17.72-31.97,36.04-26.83,13.9,3.89,19.22,20.02,21.51,32.75,2.35,13.05,2.36,26.38,1.96,39.59-.06,2.06-.03,4.12-.16,6.18ZM260.59,224.73c-.43,0-.87-.02-1.31,0-.21,0-.65-.13-.61.17.43,0,.87.02,1.31,0,.21,0,.65.13.61-.17Z"/>
  <path class="cls-1" d="M264.06,222.34c.05.35-.46.19-.71.2-.51.02-1.02-.01-1.52,0-.05-.35.46-.19.71-.2.51-.02,1.02.01,1.52,0Z"/>
</svg>