<?xml version="1.0" encoding="UTF-8"?>
<svg id="Calque_1" data-name="Calque 1" xmlns="http://www.w3.org/2000/svg" viewBox="0 0 479.71 479.71">
  <defs>
    <style>
      .cls-1 {
        fill: none;
        stroke: #1d1d1b;
        stroke-width: 2px;
      }

      .cls-2 {
        fill: #1d1d1b;
      }

      .cls-3 {
        fill: #fce544;
      }
    </style>
  </defs>
  <path class="cls-3" d="M242.79,43.72c-37.34,24.43-74.52,48.96-110.81,74.93-13.97,10-27.91,20.05-41.85,30.09-8.69,6.26-16.8,14.12-19.3,25.1-2.14,9.39-1.65,18.43,2.12,27.35,3.4,8.07,9.22,15.88,17.18,20.08l10.03,4.23c7.44,2,14.89,2,22.33,0,17.02-2.64,34.07-5.1,51.14-7.4-3.72.5-7.44,1-11.17,1.5,75.94-10.16,152.32-16.87,228.87-20.04-7.07-26.09-14.13-52.18-21.2-78.27-37.38,22.09-77.74,39.42-117.36,57.01-43.72,19.42-87.82,38.05-131.22,58.19-15.07,6.99-30.21,14.06-44.62,22.35-15.65,9.02-31.4,20.47-36.27,38.9-6.27,23.72,8.64,48.46,32.23,54.63,7.66,2,15.95,2.63,23.89,2.3,11.82-.49,23.63-1.97,35.4-3.05,16.16-1.48,32.32-2.95,48.48-4.39,66.17-5.9,132.54-12.09,198.98-13.75,6.3-.16,12.61-.25,18.92-.26-3.72-27.5-7.44-55-11.17-82.5-63,17.19-126.71,40.17-180.06,78.68-17.1,12.34-33.53,25.66-48.43,40.61-7.61,7.63-12.3,18.91-12.3,29.7s4.58,22.61,12.3,29.7c16.75,15.37,42.82,16.62,59.4,0,9.69-9.72,19.98-18.79,30.81-27.22l-8.5,6.57c27.07-20.87,57.08-37.35,88.49-50.72l-10.03,4.23c29.43-12.41,59.87-22.14,90.67-30.54,20.22-5.52,32.82-25.69,30.08-46.08-2.74-20.41-20.2-36.44-41.25-36.42-42.92.04-85.86,3.26-128.63,6.53-47.77,3.65-95.48,8.01-143.18,12.37-12.92,1.18-26.92,3.97-39.96,2.31l11.17,1.5c-1.22-.17-2.43-.4-3.58-.87,3.34,1.41,6.69,2.82,10.03,4.23-.4-.17-.77-.37-1.12-.63l8.5,6.57c-.2-.16-.37-.33-.53-.52l6.57,8.5c-.11-.15-.19-.3-.27-.47l4.23,10.03c-.06-.17-.11-.33-.13-.5l1.5,11.17c-.02-.18-.02-.36,0-.54l-1.5,11.17c.05-.31.13-.6.25-.89l-4.23,10.03c.24-.54.56-1.02.91-1.49l-6.57,8.5c1.21-1.52,2.71-2.77,4.24-3.96l-8.5,6.57c11.09-8.47,24.28-14.51,36.75-20.59,20.06-9.79,40.45-18.89,60.86-27.92,47.96-21.24,96.27-41.74,143.76-64.03,21.48-10.08,42.97-20.4,63.41-32.48,15.41-9.11,25-29.81,19.3-47.43-5.54-17.13-21.57-31.62-40.5-30.83-73.57,3.05-147,9.33-220.01,18.87-23.76,3.1-47.48,6.41-71.16,10.08l32.36,76.77c37.14-26.75,74.25-53.46,112.47-78.66,13.38-8.82,26.79-17.58,40.2-26.35,9.13-5.97,16.35-14.39,19.3-25.1,2.77-10.05,1.52-23.44-4.23-32.36s-14.39-16.86-25.1-19.3c-10.71-2.44-22.88-1.97-32.36,4.23h0Z"/>
  <g>
    <path class="cls-2" d="M215.68,264.43l.8-41.35h14.18c7.99,0,14.91-3.93,20.78-11.79,1.33-1.86,2.26-4.26,2.8-7.19l.2-2.4c0-2.13-.53-4.53-1.6-7.19-4.53-7.46-10.99-11.19-19.38-11.19-7.59,0-13.65,3.13-18.18,9.39l-25.57-16.18c4.66-7.32,10.89-13.05,18.68-17.18,7.79-4.13,16.15-6.26,25.07-6.39,10.12,0,19.38,2.6,27.77,7.79,8.39,5.19,14.71,12.19,18.98,20.98,3.06,6.79,4.59,13.45,4.59,19.98,0,8.79-2.6,17.38-7.79,25.77-7.33,11.19-17.71,19.05-31.17,23.57v12.59l-30.17.8ZM229.67,313.37c-5.06,0-9.39-1.8-12.99-5.39-3.6-3.6-5.39-7.92-5.39-12.99s1.8-9.19,5.39-12.79c3.6-3.6,7.92-5.39,12.99-5.39s9.19,1.8,12.79,5.39c3.6,3.6,5.39,7.86,5.39,12.79s-1.8,9.39-5.39,12.99c-3.6,3.6-7.86,5.39-12.79,5.39Z"/>
    <path class="cls-2" d="M215.68,264.43l.8-41.35h14.18c7.99,0,14.91-3.93,20.78-11.79,1.33-1.86,2.26-4.26,2.8-7.19l.2-2.4c0-2.13-.53-4.53-1.6-7.19-4.53-7.46-10.99-11.19-19.38-11.19-7.59,0-13.65,3.13-18.18,9.39l-25.57-16.18c4.66-7.32,10.89-13.05,18.68-17.18,7.79-4.13,16.15-6.26,25.07-6.39,10.12,0,19.38,2.6,27.77,7.79,8.39,5.19,14.71,12.19,18.98,20.98,3.06,6.79,4.59,13.45,4.59,19.98,0,8.79-2.6,17.38-7.79,25.77-7.33,11.19-17.71,19.05-31.17,23.57v12.59l-30.17.8ZM229.67,313.37c-5.06,0-9.39-1.8-12.99-5.39-3.6-3.6-5.39-7.92-5.39-12.99s1.8-9.19,5.39-12.79c3.6-3.6,7.92-5.39,12.99-5.39s9.19,1.8,12.79,5.39c3.6,3.6,5.39,7.86,5.39,12.79s-1.8,9.39-5.39,12.99c-3.6,3.6-7.86,5.39-12.79,5.39Z"/>
    <g>
      <path class="cls-1" d="M229.67,276.81c-5.06,0-9.39,1.8-12.99,5.39-3.6,3.6-5.39,7.86-5.39,12.79s1.8,9.39,5.39,12.99c3.6,3.6,7.92,5.39,12.99,5.39s9.19-1.8,12.79-5.39c3.6-3.6,5.39-7.92,5.39-12.99s-1.8-9.19-5.39-12.79c-3.6-3.6-7.86-5.39-12.79-5.39Z"/>
      <path class="cls-1" d="M280.21,181.72c-4.26-8.79-10.59-15.78-18.98-20.98-8.39-5.19-17.65-7.79-27.77-7.79-8.92.13-17.28,2.27-25.07,6.39-7.79,4.13-14.02,9.86-18.68,17.18l25.57,16.18c4.53-6.26,10.59-9.39,18.18-9.39,8.39,0,14.85,3.73,19.38,11.19,1.06,2.67,1.6,5.06,1.6,7.19l-.2,2.4c-.53,2.93-1.47,5.33-2.8,7.19-5.86,7.86-12.79,11.79-20.78,11.79h-14.18l-.8,41.35,30.17-.8v-12.59c13.45-4.53,23.84-12.39,31.17-23.57,5.19-8.39,7.79-16.98,7.79-25.77,0-6.52-1.53-13.19-4.59-19.98Z"/>
    </g>
  </g>
</svg>