<?xml version="1.0" encoding="UTF-8"?>
<svg id="Calque_1" data-name="Calque 1" xmlns="http://www.w3.org/2000/svg" viewBox="0 0 479.71 479.71">
  <defs>
    <style>
      .cls-1 {
        fill: #1d1d1b;
      }

      .cls-2 {
        fill: #f59b22;
      }
    </style>
  </defs>
  <path class="cls-2" d="M242.79,43.72c-37.34,24.43-74.52,48.96-110.81,74.93-13.97,10-27.91,20.05-41.85,30.09-8.69,6.26-16.8,14.12-19.3,25.1-2.14,9.39-1.65,18.43,2.12,27.35,3.4,8.07,9.22,15.88,17.18,20.08l10.03,4.23c7.44,2,14.89,2,22.33,0,17.02-2.64,34.07-5.1,51.14-7.4l-11.17,1.5c75.94-10.16,152.32-16.87,228.87-20.04-7.07-26.09-14.13-52.18-21.2-78.27-37.38,22.09-77.74,39.42-117.36,57.01-43.72,19.42-87.82,38.05-131.22,58.19-15.07,6.99-30.21,14.06-44.62,22.35-15.65,9.02-31.4,20.47-36.27,38.9-6.27,23.72,8.64,48.46,32.23,54.63,7.66,2,15.95,2.63,23.89,2.3,11.82-.49,23.63-1.97,35.4-3.05,16.16-1.48,32.32-2.95,48.48-4.39,66.17-5.9,132.54-12.09,198.98-13.75,6.3-.16,12.61-.25,18.92-.26-3.72-27.5-7.44-55-11.17-82.5-63,17.19-126.71,40.17-180.06,78.68-17.1,12.34-33.53,25.66-48.43,40.61-7.61,7.63-12.3,18.91-12.3,29.7s4.58,22.61,12.3,29.7c16.75,15.37,42.82,16.62,59.4,0,9.69-9.72,19.98-18.79,30.81-27.22l-8.5,6.57c27.07-20.87,57.08-37.35,88.49-50.72l-10.03,4.23c29.43-12.41,59.87-22.14,90.67-30.54,20.22-5.52,32.82-25.69,30.08-46.08s-20.2-36.44-41.25-36.42c-42.92.04-85.86,3.26-128.63,6.53-47.77,3.65-95.48,8.01-143.18,12.37-12.92,1.18-26.92,3.97-39.96,2.31l11.17,1.5c-1.22-.17-2.43-.4-3.58-.87l10.03,4.23c-.4-.17-.77-.37-1.12-.63l8.5,6.57c-.2-.16-.37-.33-.53-.52l6.57,8.5c-.11-.15-.19-.3-.27-.47l4.23,10.03c-.06-.17-.11-.33-.13-.5l1.5,11.17c-.02-.18-.02-.36,0-.54l-1.5,11.17c.05-.31.13-.6.25-.89l-4.23,10.03c.24-.54.56-1.02.91-1.49l-6.57,8.5c1.21-1.52,2.71-2.77,4.24-3.96l-8.5,6.57c11.09-8.47,24.28-14.51,36.75-20.59,20.06-9.79,40.45-18.89,60.86-27.92,47.96-21.24,96.27-41.74,143.76-64.03,21.48-10.08,42.97-20.4,63.41-32.48,15.41-9.11,25-29.81,19.3-47.43-5.54-17.13-21.57-31.62-40.5-30.83-73.57,3.05-147,9.33-220.01,18.87-23.76,3.1-47.48,6.41-71.16,10.08l32.36,76.77c37.14-26.75,74.25-53.46,112.47-78.66,13.38-8.82,26.79-17.58,40.2-26.35,9.13-5.97,16.35-14.39,19.3-25.1,2.77-10.05,1.52-23.44-4.23-32.36s-14.39-16.86-25.1-19.3-22.88-1.97-32.36,4.23h0Z"/>
  <g>
    <path d="M273.79,240.34c.37-8.02-9.84-14.45-11.23-15.3-5.03-3.08-8.32-2.91-36.02-2.61-13.05.14-16.68.15-20.22,3.21-5.24,4.52-5.97,12.03-6.57,17.24-1.32,11.41,3.06,22.62.07,23.88-.39.17-.75.09-.98.05-3.94-.79-5.1-13.09-4.79-21.1.29-7.39,1.88-12.44,4.84-21.79,1.72-5.44,4.15-11.28,8.96-22.96,2.42-5.89,3.81-8.78,4.86-10.82,2.52-4.86,3.84-6.29,5.18-11.07,3.97-14.12,2.24-33.78-13.12-40.14-3.16-1.31-12.1-3.57-13.2,1.05-1.3,14.51-2.3,34.77-13.08,45.76-2.64,2.69-6.46,4.95-9.26,7.55-6.48,6-7.57,12.23-11.03,19.9-3.67,8.14-16.25,35.07-26.45,35.07h-4.87l.32,84.23c55.6,7.02,96.59,10.49,105.71,9.53,6.24-.66,11.25-3.23,11.25-3.23,3.35-1.73,6.32-4.16,9.3-7.48,6.13-6.83,3.35-8.41,4.2-16.31.57-5.36,10.69-9.94,11.69-15.88.89-5.29-4.82-11.35-4.3-16.4.43-4.21,8.17-8.96,8.73-12.79.71-4.81-6.48-10.78-6.73-15.43-.36-6.48,6.46-7.93,6.75-14.13Z"/>
    <path class="cls-1" d="M347.26,248.23c-9.64,0-22.28-26.29-25.78-34.06-3.25-7.21-4.84-14.57-10.69-20.24-2.47-2.39-5.7-4.29-8.23-6.56-12.96-11.58-13.28-32.08-15.04-48.16-.97-3.15-9.13-1.77-11.54-.93-12.81,4.48-14.77,30.49-12.65,46.3,1.67,12.43,6.36,22.23,10.48,28.92,9.78,15.67,9.32,23.49,6.92,27.75-1.88,3.33-6.61,7.41-5.37,11.79.19.66.59,2.14,2.54,4.21,2.07,2.2,3.63,4.54,4.29,7.32.09.38.38,1.57.35,3.12-.06,3.22-1.43,5.42-4.36,10.27-2.42,4-3.63,5.99-3.65,6.08-1.61,5.97,4.02,8.73,3.06,15.85-.13.95-.64,4.74-3.42,7.75-1.22,1.31-2.12,1.84-6.09,5.41-2.43,2.18-3.34,4.07-3.3,7.4.04,3.75-.35,7.01-1.84,10.47-.33.77-1.5,3.84-4.36,6.84-2.06,2.16-4.19,3.46-5.64,4.21,10.11.58,21.09.76,32.82.31,7.78-.3,15.19-.85,22.19-1.58l44.21-8.07v-84.38s-4.87,0-4.87,0Z"/>
    <path d="M85.45,243.96c4.56-.54,23.46-.71,27.38.33,2.91.77,4.99,3.1,5.83,5.94l.15,81.21c-.62,4.13-3.77,6.88-7.89,7.24-8.24.71-17.51-.52-25.86-.05-3.28-.49-6.18-2.78-7.12-5.99l-.15-81.55c.71-4.12,3.56-6.65,7.66-7.13Z"/>
    <path d="M368.49,243.96c4.54-.54,23.17-.72,27.1.28,2.61.66,5,2.68,5.83,5.27,1,27.22.15,54.64.43,81.94-.72,4.14-3.69,6.88-7.89,7.24-8.24.71-17.52-.53-25.86-.05-3.29-.38-6.17-2.84-7.12-6l-.15-81.88c.67-3.89,3.85-6.34,7.66-6.8Z"/>
  </g>
</svg>