<?xml version="1.0" encoding="UTF-8"?>
<svg id="Calque_1" data-name="Calque 1" xmlns="http://www.w3.org/2000/svg" viewBox="0 0 479.71 479.71">
  <defs>
    <style>
      .cls-1 {
        fill: #1d1d1b;
      }
    </style>
  </defs>
  <path class="cls-1" d="M159.49,281.47l-49.3-75.37,2.04,68.85-35.24,1.22.41-162.36h56.43c12.63,0,23.43,4.48,32.39,13.45s13.44,19.76,13.44,32.39c0,10.59-3.16,19.93-9.47,28.01-6.31,8.08-14.43,13.55-24.34,16.4l40.33,60.5-26.69,16.91ZM129.95,176.96c4.89,0,8.96-1.63,12.22-4.89,3.26-3.26,4.95-7.4,5.09-12.43-.14-4.89-1.83-8.96-5.09-12.22-3.26-3.26-7.33-4.96-12.22-5.09h-19.76v34.63h19.76Z"/>
  <path class="cls-1" d="M250.55,258.25c-17.52,0-32.46-6.35-44.82-19.05-12.36-12.7-18.54-27.94-18.54-45.73s6.18-33,18.54-45.63c12.36-12.63,27.3-18.95,44.82-18.95s32.29,6.32,44.71,18.95c12.43,12.63,18.64,27.84,18.64,45.63s-6.21,33.04-18.64,45.73c-12.43,12.7-27.33,19.05-44.71,19.05ZM250.55,227.48c8.96,0,16.63-3.33,23.02-9.98,6.38-6.65,9.58-14.67,9.58-24.04s-3.19-17.35-9.58-23.94c-6.38-6.59-14.06-9.88-23.02-9.88s-16.64,3.29-23.02,9.88c-6.38,6.59-9.58,14.57-9.58,23.94s3.19,17.38,9.58,24.04c6.38,6.66,14.06,9.98,23.02,9.98Z"/>
  <path class="cls-1" d="M353.83,258.25h-31.98l2.44-147.49,29.54-1.22v148.71ZM402.72,272.51h-31.98l2.44-161.54,29.54-1.43v162.97Z"/>
  <path class="cls-1" d="M70.41,357.99l-14.73-.34.26-56.97-10.64.09-.09-10.47,34.4-.26.08,10.47-10.22.09.94,57.4Z"/>
  <path class="cls-1" d="M113.84,350.92v-30.83c0-2.78-.48-5.18-1.45-7.2-.97-2.01-2.84-3.02-5.62-3.02s-5.38,1.01-7.45,3.02c-2.07,2.02-3.42,4.47-4.05,7.37l.26,29.89-13.37-.34v-61.48h12.86l.17,15.07c2.95-3.92,7.24-5.88,12.86-5.88s10.16,1.99,13.45,5.96c3.29,3.97,4.97,8.89,5.02,14.73v32.36l-12.69.34Z"/>
  <path class="cls-1" d="M155.82,350.24c-7.27,0-13.45-2.62-18.56-7.88-5.11-5.25-7.66-11.57-7.66-18.95s2.55-13.68,7.66-18.9c5.11-5.22,11.3-7.83,18.56-7.83,6.13.06,11.58,2.02,16.35,5.88,4.65,3.86,7.69,8.72,9.11,14.56.57,2.1.85,4.2.85,6.3l-37.89,8c2.9,4.26,6.76,6.39,11.58,6.39,2.55,0,4.92-.67,7.11-2,2.18-1.33,3.9-3.19,5.15-5.58l10.98,5.62c-2.33,4.49-5.56,8-9.71,10.56-4.14,2.55-8.66,3.83-13.54,3.83ZM142.37,320.27l24.69-5.19c-1.31-1.87-2.98-3.35-5.02-4.43-2.04-1.08-4.12-1.62-6.22-1.62-3.12,0-6,1.06-8.64,3.19-2.64,2.13-4.24,4.81-4.81,8.05Z"/>
  <g>
    <path class="cls-1" d="M266.41,369.72h-13.79l-2.05-6.15c-5.93,4.03-12.46,6.08-19.6,6.15-9.8,0-18.16-3.55-25.07-10.66-6.91-7.1-10.37-15.63-10.37-25.58s3.46-18.46,10.37-25.53c6.91-7.07,15.27-10.6,25.07-10.6,6.53,0,12.61,1.71,18.23,5.13v-15.95h17.21v83.19ZM230.97,352.51c5.01,0,9.31-1.86,12.88-5.58,3.57-3.72,5.36-8.21,5.36-13.45s-1.79-9.7-5.36-13.39c-3.57-3.68-7.86-5.53-12.88-5.53s-9.31,1.84-12.88,5.53c-3.57,3.69-5.36,8.15-5.36,13.39s1.78,9.73,5.36,13.45c3.57,3.72,7.86,5.58,12.88,5.58Z"/>
    <path class="cls-1" d="M282.82,290.17c-1.37,0-2.73-.27-4.1-.8-2.66-1.21-4.52-3.08-5.58-5.58-.53-1.29-.8-2.62-.8-3.99,0-1.29.27-2.62.8-3.99,1.14-2.74,3-4.63,5.58-5.7,1.29-.53,2.62-.8,3.99-.8,1.29,0,2.62.27,3.99.8,2.74,1.22,4.6,3.12,5.58,5.7.53,1.22.8,2.51.8,3.87,0,1.29-.27,2.66-.8,4.1-1.14,2.66-3,4.52-5.58,5.58-1.29.53-2.58.8-3.87.8ZM274.28,370.17v-72.25l17.21-.57,1.14,72.37-18.35.46Z"/>
    <path class="cls-1" d="M332.28,369.37c-9.73,0-18.01-3.51-24.84-10.54-6.84-7.03-10.26-15.48-10.26-25.36s3.42-18.31,10.26-25.3c6.84-6.99,15.12-10.48,24.84-10.48s18.42,3.84,25.87,11.51l-12.31,11.05c-3.87-4.03-8.4-6.04-13.56-6.04s-9.55,1.88-13.16,5.64c-3.61,3.76-5.41,8.3-5.41,13.62s1.8,9.86,5.41,13.62c3.61,3.76,8,5.64,13.16,5.64,3.42,0,6.59-.89,9.52-2.68,2.92-1.78,5.22-4.27,6.89-7.46l14.7,7.52c-3.12,6-7.45,10.71-12.99,14.13-5.55,3.42-11.59,5.13-18.12,5.13Z"/>
    <path class="cls-1" d="M399.29,369.37c-9.73,0-18.01-3.51-24.84-10.54-6.84-7.03-10.26-15.48-10.26-25.36s3.42-18.31,10.26-25.3c6.84-6.99,15.12-10.48,24.84-10.48,8.21.08,15.5,2.7,21.88,7.86,6.23,5.17,10.29,11.66,12.19,19.49.76,2.81,1.14,5.62,1.14,8.43l-50.71,10.71c3.87,5.7,9.04,8.55,15.5,8.55,3.42,0,6.59-.89,9.52-2.68,2.92-1.78,5.22-4.27,6.89-7.46l14.7,7.52c-3.12,6-7.45,10.71-12.99,14.13-5.55,3.42-11.59,5.13-18.12,5.13ZM381.28,329.26l33.05-6.95c-1.75-2.51-3.99-4.48-6.72-5.93-2.74-1.44-5.51-2.16-8.32-2.16-4.18,0-8.03,1.42-11.57,4.27-3.53,2.85-5.68,6.44-6.44,10.77Z"/>
  </g>
</svg>