<?xml version="1.0" encoding="UTF-8"?>
<svg id="Calque_1" data-name="Calque 1" xmlns="http://www.w3.org/2000/svg" viewBox="0 0 479.71 479.71">
  <defs>
    <style>
      .cls-1 {
        fill: #f59b22;
      }
    </style>
  </defs>
  <path class="cls-1" d="M118.54,137.62c9.42,0,18.44-8.28,18-18s-7.91-18-18-18c-9.42,0-18.44,8.28-18,18s7.91,18,18,18h0Z"/>
  <path class="cls-1" d="M242.79,43.72c-37.34,24.43-74.52,48.96-110.81,74.93-13.97,10-27.91,20.05-41.85,30.09-8.69,6.26-16.8,14.12-19.3,25.1-2.14,9.39-1.65,18.43,2.12,27.35,3.4,8.07,9.22,15.88,17.18,20.08l10.03,4.23c7.44,2,14.89,2,22.33,0,17.02-2.64,34.07-5.1,51.14-7.4l-11.17,1.5c75.94-10.16,152.32-16.87,228.87-20.04-7.07-26.09-14.13-52.18-21.2-78.27-37.38,22.09-77.74,39.42-117.36,57.01-43.72,19.42-87.82,38.05-131.22,58.19-15.07,6.99-30.21,14.06-44.62,22.35-15.65,9.02-31.4,20.47-36.27,38.9-6.27,23.72,8.64,48.46,32.23,54.63,7.66,2,15.95,2.63,23.89,2.3,11.82-.49,23.63-1.97,35.4-3.05,16.16-1.48,32.32-2.95,48.48-4.39,66.17-5.9,132.54-12.09,198.98-13.75,6.3-.16,12.61-.25,18.92-.26-3.72-27.5-7.44-55-11.17-82.5-63,17.19-126.71,40.17-180.06,78.68-17.1,12.34-33.53,25.66-48.43,40.61-7.61,7.63-12.3,18.91-12.3,29.7s4.58,22.61,12.3,29.7c16.75,15.37,42.82,16.62,59.4,0,9.69-9.72,19.98-18.79,30.81-27.22l-8.5,6.57c27.07-20.87,57.08-37.35,88.49-50.72l-10.03,4.23c29.43-12.41,59.87-22.14,90.67-30.54,20.22-5.52,32.82-25.69,30.08-46.08s-20.2-36.44-41.25-36.42c-42.92.04-85.86,3.26-128.63,6.53-47.77,3.65-95.48,8.01-143.18,12.37-12.92,1.18-26.92,3.97-39.96,2.31l11.17,1.5c-1.22-.17-2.43-.4-3.58-.87l10.03,4.23c-.4-.17-.77-.37-1.12-.63l8.5,6.57c-.2-.16-.37-.33-.53-.52l6.57,8.5c-.11-.15-.19-.3-.27-.47l4.23,10.03c-.06-.17-.11-.33-.13-.5l1.5,11.17c-.02-.18-.02-.36,0-.54l-1.5,11.17c.05-.31.13-.6.25-.89l-4.23,10.03c.24-.54.56-1.02.91-1.49l-6.57,8.5c1.21-1.52,2.71-2.77,4.24-3.96l-8.5,6.57c11.09-8.47,24.28-14.51,36.75-20.59,20.06-9.79,40.45-18.89,60.86-27.92,47.96-21.24,96.27-41.74,143.76-64.03,21.48-10.08,42.97-20.4,63.41-32.48,15.41-9.11,25-29.81,19.3-47.43s-21.57-31.62-40.5-30.83c-73.57,3.05-147,9.33-220.01,18.87-23.76,3.1-47.48,6.41-71.16,10.08l32.36,76.77c37.14-26.75,74.25-53.46,112.47-78.66,13.38-8.82,26.79-17.58,40.2-26.35,9.13-5.97,16.35-14.39,19.3-25.1,2.77-10.05,1.52-23.44-4.23-32.36s-14.39-16.86-25.1-19.3-22.88-1.97-32.36,4.23h0Z"/>
  <g>
    <path d="M392.02,158.35c-.59-2.23-4.41-2.58-6.42-3.35-8.03-3.08-15.37-7.98-19.99-15.34-2.98-4.74-3.83-9.96-5.94-15.02-6.57-15.77-20.85-26.9-28.63-42.26-2.85-5.63-5.17-12.97,3.45-14.37,17.98-2.93,24.61,19.17,33.15,30.15,9.24,11.89,24.16,19.05,35.51,28.73,6.07,5.17,10.27,12.23,13.72,19.32.36.73,1.76,3.33,1.59,3.87l-32.76,60.2c-6.85,10.23-34.55,8.79-45.76,9.75-18.31,1.56-34.34,8.99-51.85,13.39-6.76,1.7-18.95,3.7-23.82-2.78-5.16-6.87,9.26-12.74,13.86-14.98,10.68-5.19,21.85-9.41,32.88-13.77,1.33-.73,2.17-2.11,1.58-3.61-.78-1.97-2-1.85-3.77-1.91-12.26-.41-25.4.8-37.89.64-9.86-.13-28.23.71-34.86-7.63-4.05-5.1.94-6.87,5.19-7.95,2.83-.72,6.2-1.19,9.11-1.7,20.01-3.48,40.49-5.35,60.66-7.79,3.21-.91,2.93-5.13-.36-5.7-20.06-2.2-40.58-3.89-60.39-7.9-8.02-1.62-20.55-3.81-24.97-11.39-1.57-2.7-1.78-6.17.88-8.27,2.85-2.24,9.81-1.14,13.31-.89,25.09,1.85,50.41,5.98,75.4,7.66,1.39.09,3.11.49,4.08-.87,1.18-1.65.8-3.44-.93-4.47-16.34-6.79-32.58-13.82-48.33-21.93-8.42-4.34-20.02-9.46-20.88-20.4-.98-12.56,11.94-6.46,18.2-4,6.73,2.65,13.43,5.64,20.05,8.55,23.54,10.35,46.86,21.49,69.95,32.7,4.2,12.58,15.06,21.48,27.4,25.74,1.2.42,3.71,1.3,4.89,1.25,1.78-.07,3.11-1.93,2.66-3.65Z"/>
    <path d="M164.75,109.15c-.93-1.7-3.27-1.95-4.63-.63-.87.84-2.45,3.94-3.14,5.18-1.01,1.8-1.84,3.7-2.88,5.48-5.95.93-12.18,1.12-18.18.46-7.39-.81-14.28-2.65-21.11-5.58-1.71-.73-4.47-2.6-6.13-2.81-2.77-.36-4.24,3.49-1.58,5.37,5.27,3.71,16.54,6.94,22.93,8.08,7.1,1.27,14.36,1.35,21.51.73-1.09,2.55-1.55,5.23-2.42,7.83-5.72.2-11.84.96-16.22,5-6.27,5.79-6.37,14.53-3.61,22.04-11.02,3.12-13.16,15.93-9.6,25.46-9.53,6.26-9.77,16.81-4.13,25.83-8.4-3.36-16.75-7.02-24.7-11.34-8.87-4.81-14.22-8.24-19.8-16.79-4.18-6.41-7.33-13.58-9.82-20.8l19.92-67.51c7.64-2.87,15.26-5.95,23.1-8.24,11.27-3.29,16.01-2.5,27.49-.57,14.36,2.42,29.25,5.61,43.35,9.24,5.78,1.49,10.93,1.59,13.55,7.85,5,12-9.44,35.88-19.18,42.97-6.22,4.52-14.07,5.2-15.16-4.25-.86-7.41,3.09-16.86,6.47-23.39,1.07-2.08,3.45-5.24,4.14-7.16.24-.67.18-1.84-.15-2.45Z"/>
    <path d="M148.53,139.22c-.8,12.14,8.78,20.04,20.24,14.26,8.34,4.54,17.04,8.4,26.14,11.2,1.58,9.17-1.59,19.21-12.13,20.08-7.44.62-21.54-7.6-28.28-11.42-3.99-2.26-8.18-4.71-11.99-7.26-4.6-3.08-7.12-4.48-8.59-10.14-2.87-11,3.95-17.39,14.61-16.73Z"/>
    <path d="M128.56,166.74c.89-.48,3.28-1.06,4.23-.71.73.27,3.01,2.39,3.92,3.02,9.62,6.65,21.7,13.83,32.5,18.31,2.41,1,4.96,1.89,7.45,2.52.89.53.35,8.19.06,9.45-3.89,16.79-29.54,2.82-38.04-2.72-4.76-3.1-11.46-7.79-13.63-13.16-2.04-5.07-1.87-13.77,3.52-16.7Z"/>
    <path d="M122.51,190.74c11.31,11.03,26.04,20.07,41.93,22.28-.37,5.14-2.87,10.41-7.82,12.5-12.54,5.3-35.95-10.37-38.78-23.11-1.15-5.17.61-8.51,4.66-11.67Z"/>
    <path d="M174.42,150.01c-.13-.23,3.25-3.21,3.66-3.66,4.47-4.81,7.93-10.54,11.25-16.19,6.2,2.74,13.55,5.29,18.9,9.53,9.11,7.21,1.77,22.13-10.31,19.62-8.15-1.69-16.04-5.8-23.51-9.3Z"/>
    <g>
      <path d="M269.11,352.13c-1.43,11.04-2.16,22.34-4.17,33.28-.91,4.96-1.44,7.64-4.16,11.95-3.25,5.16-7.37,9.88-11.28,14.55l-68.42.05c-5.79-7.8-12.27-15.67-17.1-24.12-3.88-6.79-4.5-11.86-5.54-19.51-1.63-11.95-2.9-25.24-3.37-37.28-.19-4.9-.95-11.02,2.57-14.83,9.1-9.86,37.69-2.43,47.27,4.62,7.21,5.3,9.94,13.4-.54,16.8-9.66,3.13-21.67.16-31.25-2.1-2.81.17-3.83,4.03-1.35,5.4,2.93,1.62,8.26,1.59,11.39,2.67.37.13.52.18.78.5.79.97,2.37,5.45,2.85,6.87,1.5,4.45,2.72,9.7,3.28,14.36.29,2.44.09,5.59.6,7.84s4.14,2.76,5.28.53c.84-1.64-.19-9.21-.52-11.43-.91-6.13-2.75-12-4.81-17.81,4.5.44,9.37.16,13.76-.94,15.09-3.77,16.67-17.3,4.88-26.52-7.13-5.58-16.63-8.21-25.35-10.13l-.28-.3c-1.87-16.9-4.02-33.79-5.79-50.7-.77-7.33-2-15.47-2.31-22.74s2.09-15.08,10.81-13.88c7.82,1.07,10.92,9.46,11.92,16.21,2.89,19.57,2.19,40.22,3.17,59.98.41,3,2.9,5.51,5.95,5.82s7.32.21,9.56-1.94c2.75-2.64,1.91-5.32,2.06-8.68.7-15.58.8-31.18,1.8-46.78.46-7.16.87-19.95,3.32-26.34,5-13.09,21.51-13.11,21.22,3.33-.15,8.52-1.88,18.95-2.81,27.61-1.61,15.01-3.59,29.98-5.11,45l-.13.38c-4.3,3.21-7.05,8-9.12,12.87-4.07,9.55-9.33,31.66-5.03,41.17,4.19,9.26,17.39,9.37,24.89,4.34,5.07,4.11,10.98,5.2,17,2.34.61-.29,3.89-2.62,4.09-2.42Z"/>
      <path d="M244.76,296.97c4.59-.62,8.98,1.91,10.94,6.06,1.6,3.4-.02,9.62-.72,13.36-1.39,7.33-4.55,22.3-8.06,28.5-3.57,6.31-16.65,7.23-19.04-.74s2.08-26.5,5.33-34.46c2.13-5.22,5.31-11.87,11.56-12.73Z"/>
      <path d="M262.27,307.45c3.82-1.39,8.79-2.01,11.96,1.08,6.56,6.4.93,24.32-2.94,31.33-3.36,6.08-9.89,13.44-17.52,9.33-.54-.29-1.74-.91-1.77-1.53-.03-.56,1.52-3.64,1.85-4.55,4.14-11.51,6.44-23.62,8.43-35.68Z"/>
    </g>
  </g>
</svg>