<?xml version="1.0" encoding="UTF-8"?>
<svg id="Calque_1" data-name="Calque 1" xmlns="http://www.w3.org/2000/svg" viewBox="0 0 479.71 479.71">
  <defs>
    <style>
      .cls-1 {
        fill: #1d1d1b;
      }
    </style>
  </defs>
  <path class="cls-1" d="M114.09,302.22l-35.76-54.68,1.48,49.95-25.57.89.3-117.79h40.94c9.16,0,17,3.25,23.5,9.75,6.5,6.5,9.75,14.34,9.75,23.5,0,7.69-2.29,14.46-6.87,20.32-4.58,5.86-10.47,9.83-17.66,11.9l29.26,43.89-19.36,12.27ZM92.66,226.41c3.55,0,6.5-1.18,8.87-3.55s3.59-5.37,3.69-9.02c-.1-3.55-1.33-6.5-3.69-8.87s-5.32-3.6-8.87-3.7h-14.34v25.12h14.34Z"/>
  <path class="cls-1" d="M172.91,287.29c-9.85,0-17.69-3.5-23.5-10.49-5.81-6.99-8.72-15.42-8.72-25.27v-56.9l22.02-.89v54.39c0,4.93.84,9.14,2.51,12.64,1.67,3.5,4.97,5.25,9.9,5.25s9.36-1.8,13.01-5.39c3.64-3.6,5.96-7.96,6.95-13.08l-.89-50.84h23.5v89.27h-18.47l-2.66-10.64c-5.22,7.98-13.1,11.97-23.65,11.97Z"/>
  <path class="cls-1" d="M253.01,285.37h-23.2l1.77-107,21.43-.89v107.89Z"/>
  <path class="cls-1" d="M307.98,284.93c-12.61,0-23.35-4.56-32.22-13.67-8.87-9.11-13.3-20.07-13.3-32.88s4.43-23.74,13.3-32.81c8.87-9.06,19.61-13.6,32.22-13.6,10.64.1,20.1,3.5,28.38,10.2,8.08,6.7,13.35,15.13,15.81,25.27.98,3.65,1.48,7.29,1.48,10.94l-65.77,13.89c5.02,7.39,11.72,11.08,20.1,11.08,4.43,0,8.55-1.16,12.34-3.47,3.79-2.31,6.77-5.54,8.94-9.68l19.06,9.75c-4.04,7.78-9.66,13.89-16.85,18.33-7.19,4.43-15.03,6.65-23.5,6.65ZM284.63,232.91l42.86-9.02c-2.27-3.25-5.17-5.81-8.72-7.69-3.55-1.87-7.14-2.81-10.79-2.81-5.42,0-10.42,1.85-15,5.54-4.58,3.7-7.37,8.35-8.35,13.97Z"/>
  <path class="cls-1" d="M392.96,288.18h-2.37c-6.31,0-12.24-1.33-17.81-3.99-5.57-2.66-10.22-6.36-13.97-11.08v-.15l18.03-13.74v.15c3.35,4.14,7.98,6.21,13.89,6.21h.89c5.91-.49,9.51-2.37,10.79-5.62.3-.69.44-1.53.44-2.51-.1-.98-.59-1.92-1.48-2.81-1.68-1.87-5.67-3.89-11.97-6.06l-6.21-2.66c-4.93-2.07-9.51-4.78-13.74-8.13-6.41-5.71-9.61-12.07-9.61-19.07,0-2.86.54-5.81,1.63-8.87,2.26-5.81,6.4-10.54,12.41-14.19,5.71-3.25,11.53-4.88,17.44-4.88,11.53,0,21.53,4.34,30,13.01h.15l-16.55,15.52c-3.94-3.94-8.52-5.91-13.74-5.91-2.07.2-3.99.84-5.76,1.92-1.77,1.09-2.66,2.07-2.66,2.96,0,.79.44,1.48,1.33,2.07,4.63,3.45,9.7,6.06,15.22,7.83,2.07.79,4.09,1.63,6.06,2.51,4.73,1.97,8.92,4.73,12.56,8.28,5.02,5.62,7.54,11.97,7.54,19.07,0,5.91-1.87,11.53-5.62,16.85-6.01,7.98-14.98,12.41-26.9,13.3Z"/>
</svg>